# Blender v2.69 (sub 0) OBJ File: 'Alien1.blend'
# www.blender.org
o Cube
v 5.000000 -5.000000 -5.000000
v 5.000000 -5.000000 5.000000
v -5.000000 -5.000000 4.999999
v -4.999998 -5.000000 -5.000002
v 5.000002 5.000000 -4.999997
v 4.999997 5.000000 5.000003
v -5.000002 5.000000 4.999998
v -5.000000 5.000000 -5.000000
v 5.000002 15.000000 -4.999998
v 4.999997 15.000000 5.000003
v -5.000002 15.000000 4.999998
v -5.000000 15.000000 -5.000000
v 5.000002 -4.999999 -15.000000
v -4.999996 -4.999999 -15.000002
v 5.000005 5.000001 -14.999998
v -4.999997 5.000001 -15.000000
v 5.000005 15.000001 -14.999998
v -4.999997 15.000001 -15.000000
v 4.999996 -5.000000 15.000000
v -5.000004 -5.000000 14.999999
v 4.999993 5.000000 15.000002
v -5.000005 5.000000 14.999998
v 4.999993 15.000000 15.000002
v -5.000005 15.000000 14.999998
v 5.000001 6.500000 -3.499997
v 4.999997 6.500000 3.500003
v 5.000001 13.500000 -3.499997
v 4.999997 13.500000 3.500003
v 5.000003 6.500001 -10.499997
v 5.000003 13.500002 -10.499997
v 4.999995 6.500000 10.500002
v 4.999995 13.500000 10.500002
v 5.000001 6.500000 -3.499997
v 4.999997 6.500000 3.500003
v 5.000001 13.500000 -3.499997
v 4.999997 13.500000 3.500003
v 5.000003 6.500001 -10.499997
v 5.000003 13.500002 -10.499997
v 4.999995 6.500000 10.500002
v 4.999995 13.500000 10.500002
v -4.999999 6.500000 -3.500000
v -5.000002 6.500000 3.499999
v -4.999999 13.500000 -3.500000
v -5.000002 13.500000 3.499999
v -4.999997 6.500001 -10.500001
v -4.999997 13.500002 -10.500001
v -5.000005 6.500000 10.499998
v -5.000005 13.500000 10.499998
v 2.500002 15.000000 -7.499998
v -2.499999 15.000000 -7.500000
v 2.500004 15.000000 -12.499998
v -2.499997 15.000000 -12.500000
v 2.500002 15.000000 -7.499998
v -2.499999 15.000000 -7.500000
v 2.500004 15.000000 -12.499998
v -2.499997 15.000000 -12.500000
v 2.500002 20.000000 -7.499998
v -2.499999 20.000000 -7.500000
v 2.500004 20.000000 -12.499998
v -2.499997 20.000000 -12.500000
v 2.499996 15.000000 7.500001
v -2.500003 15.000000 7.499999
v 2.499994 15.000000 12.500001
v -2.500005 15.000000 12.499999
v 2.499996 20.000000 7.500001
v -2.500003 20.000000 7.499999
v 2.499994 20.000000 12.500001
v -2.500005 20.000000 12.499999
v 2.500003 0.000001 -15.000000
v -2.499996 0.000001 -15.000001
v 2.500004 5.000001 -14.999999
v -2.499997 5.000001 -15.000000
v 2.500004 10.000001 -14.999999
v -2.499997 10.000001 -15.000000
v 2.500005 0.000002 -25.000000
v -2.499994 0.000002 -25.000000
v 2.500007 5.000002 -25.000000
v -2.499995 5.000002 -25.000000
v 2.500007 10.000002 -25.000000
v -2.499995 10.000002 -25.000000
v 2.499995 -0.000001 15.000000
v -2.500005 -0.000001 15.000000
v 2.499994 5.000000 15.000001
v -2.500005 5.000000 14.999999
v 2.499994 10.000000 15.000001
v -2.500005 10.000000 14.999999
v 2.499992 -0.000001 25.000000
v -2.500008 -0.000001 25.000000
v 2.499990 5.000000 25.000000
v -2.500009 5.000000 25.000000
v 2.499990 10.000000 25.000000
v -2.500009 10.000000 25.000000
v 3.000000 -5.000000 -3.000000
v 3.000000 -5.000000 3.000000
v -3.000000 -5.000000 3.000000
v -2.999999 -5.000000 -3.000001
v 3.000002 -5.000000 -9.000000
v -2.999998 -5.000000 -9.000002
v 2.999998 -5.000000 9.000000
v -3.000002 -5.000000 9.000000
v 3.000000 -12.500000 -3.000001
v 3.000000 -12.500000 2.999999
v -3.000000 -12.500000 2.999999
v -2.999999 -12.500000 -3.000002
v 3.000002 -12.500000 -9.000001
v -2.999998 -12.500000 -9.000002
v 2.999998 -12.500000 9.000000
v -3.000002 -12.500000 8.999999
v 1.000004 0.000002 -18.000000
v -0.999996 0.000002 -18.000000
v 1.000005 0.000002 -22.000000
v -0.999995 0.000002 -22.000000
v 1.000004 -7.499998 -18.000000
v -0.999996 -7.499998 -18.000002
v 1.000005 -7.499998 -22.000000
v -0.999995 -7.499998 -22.000000
v 0.999994 -0.000001 18.000000
v -1.000006 -0.000001 18.000000
v 0.999993 -0.000001 22.000000
v -1.000007 -0.000001 22.000000
v 0.999994 -7.500000 18.000000
v -1.000006 -7.500000 18.000000
v 0.999993 -7.500000 22.000000
v -1.000007 -7.500000 22.000000
vn 0.000000 -1.000000 0.000000
vn -1.000000 0.000000 -0.000000
vn 1.000000 -0.000000 0.000000
vn 0.000000 1.000000 0.000000
vn 1.000000 0.000000 0.000001
vn 0.000000 0.000000 -1.000000
vn 0.000000 0.000000 1.000000
vn 1.000000 0.000001 0.000000
vn -1.000000 0.000000 -0.000001
vn 1.000000 -0.000001 0.000000
vn -0.000000 1.000000 0.000001
vn 0.000000 1.000000 -0.000001
vn 0.000001 0.000000 -1.000000
vn -0.000001 -0.000000 1.000000
vn -0.000002 0.000000 1.000000
vn 0.000001 0.000000 1.000000
vn 0.000002 0.000000 -1.000000
vn 0.000000 -1.000000 -0.000001
s off
f 1//1 2//1 4//1
f 8//2 7//2 12//2
f 1//3 5//3 2//3
f 11//2 7//2 24//2
f 3//2 7//2 4//2
f 8//2 12//2 16//2
f 9//4 12//4 10//4
f 23//3 21//3 32//3
f 10//3 23//3 28//3
f 6//5 5//5 10//5
f 16//6 18//6 72//6
f 17//6 15//6 71//6
f 18//4 12//4 52//4
f 4//2 8//2 14//2
f 5//3 1//3 15//3
f 20//1 3//1 95//1
f 24//7 22//7 84//7
f 21//7 23//7 83//7
f 11//4 24//4 62//4
f 7//2 3//2 22//2
f 2//3 6//3 19//3
f 2//1 19//1 94//1
f 32//7 31//7 40//7
f 28//7 32//7 36//7
f 5//8 15//8 25//8
f 15//3 17//3 29//3
f 9//9 5//9 27//9
f 6//2 10//2 26//2
f 21//3 6//3 26//3
f 17//10 9//10 27//10
f 40//6 39//6 48//6
f 36//1 40//1 44//1
f 25//7 29//7 33//7
f 29//7 30//7 37//7
f 27//7 25//7 35//7
f 26//7 28//7 34//7
f 31//7 26//7 39//7
f 30//7 27//7 38//7
f 42//3 44//3 47//3
f 43//3 41//3 46//3
f 33//4 37//4 41//4
f 37//7 38//7 45//7
f 35//6 33//6 43//6
f 34//7 36//7 42//7
f 39//4 34//4 47//4
f 38//1 35//1 46//1
f 52//7 50//7 56//7
f 17//11 18//11 51//11
f 12//4 9//4 50//4
f 9//4 17//4 49//4
f 56//2 54//2 60//2
f 51//7 52//7 55//7
f 50//7 49//7 54//7
f 49//7 51//7 53//7
f 58//11 57//11 60//11
f 55//6 56//6 59//6
f 54//7 53//7 58//7
f 53//3 55//3 57//3
f 62//2 64//2 66//2
f 23//4 10//4 63//4
f 24//4 23//4 64//4
f 10//12 11//12 61//12
f 65//11 66//11 67//11
f 63//3 61//3 67//3
f 64//7 63//7 68//7
f 61//6 62//6 65//6
f 72//2 74//2 78//2
f 73//3 71//3 79//3
f 18//6 17//6 74//6
f 14//6 16//6 72//6
f 15//13 13//13 71//13
f 13//6 14//6 69//6
f 77//6 75//6 78//6
f 77//6 78//6 79//6
f 74//4 73//4 80//4
f 70//2 72//2 76//2
f 71//3 69//3 77//3
f 75//1 69//1 111//1
f 86//2 84//2 92//2
f 83//3 85//3 89//3
f 23//7 24//7 85//7
f 22//7 20//7 84//7
f 19//14 21//14 83//14
f 20//7 19//7 82//7
f 87//7 89//7 88//7
f 90//7 89//7 92//7
f 85//4 86//4 91//4
f 84//2 82//2 90//2
f 81//3 83//3 87//3
f 81//1 87//1 117//1
f 100//2 95//2 108//2
f 94//3 99//3 102//3
f 19//1 20//1 99//1
f 13//1 1//1 93//1
f 4//1 14//1 96//1
f 14//1 13//1 98//1
f 3//4 2//4 95//4
f 1//4 4//4 93//4
f 101//1 104//1 105//1
f 103//1 102//1 108//1
f 99//7 100//7 107//7
f 97//3 93//3 105//3
f 96//2 98//2 104//2
f 98//6 97//6 106//6
f 95//6 94//6 103//6
f 93//7 96//7 101//7
f 111//3 109//3 115//3
f 70//1 76//1 110//1
f 76//1 75//1 112//1
f 69//1 70//1 109//1
f 113//1 114//1 115//1
f 110//2 112//2 114//2
f 112//6 111//6 116//6
f 109//7 110//7 113//7
f 117//3 119//3 121//3
f 88//1 82//1 120//1
f 87//1 88//1 119//1
f 82//1 81//1 118//1
f 122//1 121//1 124//1
f 120//2 118//2 124//2
f 119//7 120//7 123//7
f 118//6 117//6 122//6
f 2//1 3//1 4//1
f 7//2 11//2 12//2
f 5//5 6//5 2//5
f 7//2 22//2 24//2
f 7//2 8//2 4//2
f 12//2 18//2 16//2
f 12//4 11//4 10//4
f 21//3 31//3 32//3
f 23//3 32//3 28//3
f 5//5 9//5 10//5
f 18//6 74//6 72//6
f 73//6 17//6 71//6
f 12//4 50//4 52//4
f 8//2 16//2 14//2
f 1//3 13//3 15//3
f 100//1 20//1 95//1
f 86//15 24//15 84//15
f 23//16 85//16 83//16
f 24//4 64//4 62//4
f 3//2 20//2 22//2
f 6//3 21//3 19//3
f 19//1 99//1 94//1
f 31//7 39//7 40//7
f 32//7 40//7 36//7
f 15//3 29//3 25//3
f 17//3 30//3 29//3
f 5//9 25//9 27//9
f 10//2 28//2 26//2
f 31//3 21//3 26//3
f 30//3 17//3 27//3
f 39//6 47//6 48//6
f 40//1 48//1 44//1
f 29//7 37//7 33//7
f 30//7 38//7 37//7
f 25//7 33//7 35//7
f 28//7 36//7 34//7
f 26//7 34//7 39//7
f 27//7 35//7 38//7
f 44//3 48//3 47//3
f 41//3 45//3 46//3
f 37//4 45//4 41//4
f 38//7 46//7 45//7
f 33//6 41//6 43//6
f 36//7 44//7 42//7
f 34//4 42//4 47//4
f 35//1 43//1 46//1
f 50//7 54//7 56//7
f 18//4 52//4 51//4
f 9//4 49//4 50//4
f 17//4 51//4 49//4
f 54//2 58//2 60//2
f 52//7 56//7 55//7
f 49//7 53//7 54//7
f 51//7 55//7 53//7
f 57//12 59//12 60//12
f 56//6 60//6 59//6
f 53//7 57//7 58//7
f 55//3 59//3 57//3
f 64//2 68//2 66//2
f 10//4 61//4 63//4
f 23//12 63//12 64//12
f 11//4 62//4 61//4
f 66//4 68//4 67//4
f 61//3 65//3 67//3
f 63//7 67//7 68//7
f 62//6 66//6 65//6
f 74//2 80//2 78//2
f 71//3 77//3 79//3
f 17//6 73//6 74//6
f 70//17 14//17 72//17
f 13//6 69//6 71//6
f 14//6 70//6 69//6
f 75//6 76//6 78//6
f 78//6 80//6 79//6
f 73//4 79//4 80//4
f 72//2 78//2 76//2
f 69//3 75//3 77//3
f 69//1 109//1 111//1
f 84//2 90//2 92//2
f 85//3 91//3 89//3
f 24//14 86//14 85//14
f 20//15 82//15 84//15
f 81//7 19//7 83//7
f 19//7 81//7 82//7
f 89//7 90//7 88//7
f 89//7 91//7 92//7
f 86//4 92//4 91//4
f 82//2 88//2 90//2
f 83//3 89//3 87//3
f 87//1 119//1 117//1
f 95//2 103//2 108//2
f 99//3 107//3 102//3
f 20//1 100//1 99//1
f 97//1 13//1 93//1
f 14//1 98//1 96//1
f 13//1 97//1 98//1
f 2//4 94//4 95//4
f 4//4 96//4 93//4
f 104//18 106//18 105//18
f 102//1 107//1 108//1
f 100//7 108//7 107//7
f 93//3 101//3 105//3
f 98//2 106//2 104//2
f 97//6 105//6 106//6
f 94//6 102//6 103//6
f 96//7 104//7 101//7
f 109//3 113//3 115//3
f 76//1 112//1 110//1
f 75//1 111//1 112//1
f 70//1 110//1 109//1
f 114//1 116//1 115//1
f 112//2 116//2 114//2
f 111//6 115//6 116//6
f 110//7 114//7 113//7
f 119//3 123//3 121//3
f 82//1 118//1 120//1
f 88//1 120//1 119//1
f 81//1 117//1 118//1
f 121//1 123//1 124//1
f 118//2 122//2 124//2
f 120//7 124//7 123//7
f 117//6 121//6 122//6
