# Blender v2.69 (sub 0) OBJ File: 'Missile.blend'
# www.blender.org
o Cone_Cone.001
v 0.000000 9.780142 -5.219858
v 0.000000 20.219858 0.000000
v 2.609929 9.780142 -4.520529
v 4.520530 9.780142 -2.609929
v 5.219858 9.780142 0.000000
v 4.520529 9.780142 2.609929
v 2.609929 9.780142 4.520529
v 0.000001 9.780142 5.219858
v -2.609928 9.780142 4.520530
v -4.520528 9.780142 2.609931
v -5.219858 9.780142 0.000002
v -4.520531 9.780142 -2.609926
v -2.609932 9.780142 -4.520528
v 0.000001 -6.806158 -5.219858
v 2.609930 -6.806158 -4.520529
v 4.520531 -6.806158 -2.609929
v 5.219859 -6.806158 0.000000
v 4.520530 -6.806158 2.609929
v 2.609930 -6.806158 4.520529
v 0.000002 -6.806158 5.219858
v -2.609927 -6.806158 4.520530
v -4.520527 -6.806158 2.609931
v -5.219857 -6.806158 0.000002
v -4.520530 -6.806158 -2.609926
v -2.609931 -6.806158 -4.520528
v 0.000001 -12.853544 -3.434540
v 1.717271 -12.853544 -2.974399
v 2.974400 -12.853544 -1.717270
v 3.434541 -12.853544 0.000000
v 2.974400 -12.853544 1.717270
v 1.717271 -12.853544 2.974399
v 0.000001 -12.853544 3.434540
v -1.717268 -12.853544 2.974400
v -2.974397 -12.853544 1.717271
v -3.434539 -12.853544 0.000002
v -2.974399 -12.853544 -1.717268
v -1.717271 -12.853544 -2.974398
v -0.000004 -39.983620 -3.434540
v 1.717266 -39.983620 -2.974399
v 2.974395 -39.983620 -1.717270
v 3.434536 -39.983620 0.000000
v 2.974395 -39.983620 1.717270
v 1.717266 -39.983620 2.974399
v -0.000003 -39.983620 3.434540
v -1.717273 -39.983620 2.974400
v -2.974402 -39.983620 1.717271
v -3.434544 -39.983620 0.000002
v -2.974404 -39.983620 -1.717268
v -1.717276 -39.983620 -2.974398
v 0.000007 -59.377464 -3.434540
v 1.717277 -59.377464 -2.974399
v 2.974406 -59.377464 -1.717270
v 3.434546 -59.377464 0.000000
v 2.974405 -59.377464 1.717270
v 1.717277 -59.377464 2.974399
v 0.000007 -59.377464 3.434540
v -1.717263 -59.377464 2.974400
v -2.974392 -59.377464 1.717271
v -3.434533 -59.377464 0.000002
v -2.974393 -59.377464 -1.717268
v -1.717265 -59.377464 -2.974398
v -0.000004 -39.983620 -3.434540
v 1.717266 -39.983620 -2.974399
v 2.974395 -39.983620 -1.717270
v 3.434536 -39.983620 0.000000
v 2.974395 -39.983620 1.717270
v 1.717266 -39.983620 2.974399
v -0.000003 -39.983620 3.434540
v -1.717273 -39.983620 2.974400
v -2.974402 -39.983620 1.717271
v -3.434544 -39.983620 0.000002
v -2.974404 -39.983620 -1.717268
v -1.717276 -39.983620 -2.974398
v 0.000007 -59.377464 -3.434540
v 1.717277 -59.377464 -2.974399
v 2.974406 -59.377464 -1.717270
v 3.434546 -59.377464 0.000000
v 2.974405 -59.377464 1.717270
v 1.717277 -59.377464 2.974399
v 0.000007 -59.377464 3.434540
v -1.717263 -59.377464 2.974400
v -2.974392 -59.377464 1.717271
v -3.434533 -59.377464 0.000002
v -2.974393 -59.377464 -1.717268
v -1.717265 -59.377464 -2.974398
v 13.449508 -42.892689 2.959589
v 13.127409 -42.892689 4.161678
v 13.449514 -56.468384 2.959589
v 13.127417 -56.468384 4.161678
v 9.287829 -42.892689 -10.167824
v 10.167820 -42.892689 -9.287832
v 9.287837 -56.468384 -10.167824
v 10.167828 -56.468384 -9.287832
v -2.959593 -42.892696 -13.449510
v -4.161684 -42.892696 -13.127410
v -2.959586 -56.468391 -13.449510
v -4.161676 -56.468391 -13.127410
v -13.449513 -42.892704 -2.959582
v -13.127415 -42.892704 -4.161671
v -13.449507 -56.468399 -2.959582
v -13.127409 -56.468399 -4.161671
v -9.287831 -42.892704 10.167827
v -10.167822 -42.892704 9.287837
v -9.287824 -56.468399 10.167827
v -10.167814 -56.468399 9.287837
v 1.717266 -39.983620 2.974399
v -0.000003 -39.983620 3.434540
v 1.717277 -59.377464 2.974399
v 0.000007 -59.377464 3.434540
v 4.161676 -42.892696 13.127411
v 2.959587 -42.892696 13.449511
v 4.161684 -56.468391 13.127411
v 2.959595 -56.468391 13.449511
v 0.000007 -59.377464 -3.434540
v 1.717277 -59.377464 -2.974399
v 2.974406 -59.377464 -1.717270
v 3.434546 -59.377464 0.000000
v 2.974405 -59.377464 1.717270
v 1.717277 -59.377464 2.974399
v 0.000007 -59.377464 3.434540
v -1.717263 -59.377464 2.974400
v -2.974392 -59.377464 1.717271
v -3.434533 -59.377464 0.000002
v -2.974393 -59.377464 -1.717268
v -1.717265 -59.377464 -2.974398
v 0.000007 -59.377464 -3.434540
v 1.717277 -59.377464 -2.974399
v 2.974406 -59.377464 -1.717270
v 3.434546 -59.377464 0.000000
v 2.974405 -59.377464 1.717270
v 1.717277 -59.377464 2.974399
v 0.000007 -59.377464 3.434540
v -1.717263 -59.377464 2.974400
v -2.974392 -59.377464 1.717271
v -3.434533 -59.377464 0.000002
v -2.974393 -59.377464 -1.717268
v -1.717265 -59.377464 -2.974398
v 0.000014 -62.888313 -3.434540
v 1.717284 -62.888313 -2.974399
v 2.974413 -62.888313 -1.717270
v 3.434554 -62.888313 0.000000
v 2.974412 -62.888313 1.717270
v 1.717284 -62.888313 2.974399
v 0.000014 -62.888313 3.434540
v -1.717255 -62.888313 2.974400
v -2.974385 -62.888313 1.717271
v -3.434526 -62.888313 0.000002
v -2.974386 -62.888313 -1.717268
v -1.717258 -62.888313 -2.974398
v 0.000014 -62.888313 -1.662396
v 0.831212 -62.888313 -1.439677
v 1.439691 -62.888313 -0.831197
v 1.662410 -62.888313 0.000001
v 1.439691 -62.888313 0.831199
v 0.831212 -62.888313 1.439678
v 0.000014 -62.888313 1.662397
v -0.831184 -62.888313 1.439678
v -1.439663 -62.888313 0.831199
v -1.662382 -62.888313 0.000001
v -1.439664 -62.888313 -0.831197
v -0.831185 -62.888313 -1.439676
v -0.000231 6.606405 -1.662396
v 0.830967 6.606405 -1.439677
v 1.439446 6.606405 -0.831197
v 1.662165 6.606405 0.000001
v 1.439446 6.606405 0.831199
v 0.830967 6.606405 1.439678
v -0.000231 6.606405 1.662397
v -0.831429 6.606405 1.439678
v -1.439908 6.606405 0.831199
v -1.662627 6.606405 0.000001
v -1.439909 6.606405 -0.831197
v -0.831430 6.606405 -1.439676
vn -0.636736 0.434898 -0.636735
vn 0.233061 0.434898 -0.869797
vn -0.869797 0.434898 -0.233061
vn -0.869796 0.434898 0.233062
vn -0.636735 0.434898 0.636735
vn -0.233061 0.434898 0.869797
vn 0.233061 0.434898 0.869797
vn 0.636735 0.434898 0.636735
vn 0.869796 0.434898 0.233061
vn 0.869797 0.434898 -0.233062
vn -0.233062 0.434898 -0.869796
vn 0.636735 0.434898 -0.636735
vn -0.258819 -0.000000 -0.965926
vn -0.248897 -0.274230 -0.928896
vn -0.707107 -0.000000 -0.707106
vn -0.965926 -0.000000 -0.258819
vn -0.965926 -0.000000 0.258819
vn -0.707106 -0.000000 0.707107
vn -0.258819 -0.000000 0.965926
vn 0.258819 0.000000 0.965926
vn 0.707107 0.000000 0.707107
vn 0.965926 0.000000 0.258819
vn 0.965926 0.000000 -0.258819
vn 0.707107 0.000000 -0.707107
vn 0.258819 0.000000 -0.965926
vn -0.680000 -0.274230 -0.679999
vn -0.928896 -0.274230 -0.248897
vn -0.928896 -0.274230 0.248897
vn -0.679999 -0.274230 0.679999
vn -0.248897 -0.274230 0.928896
vn 0.248897 -0.274230 0.928896
vn 0.679999 -0.274230 0.679999
vn 0.928896 -0.274230 0.248897
vn 0.928896 -0.274230 -0.248897
vn 0.679999 -0.274230 -0.680000
vn 0.248897 -0.274230 -0.928896
vn 0.959001 0.000001 -0.283401
vn -0.965926 0.000000 0.258820
vn -0.707107 0.000000 0.707107
vn 0.000000 0.000000 1.000000
vn -0.283400 -0.000000 0.959002
vn 0.688820 0.000000 0.724933
vn 0.283401 0.000000 -0.959002
vn -0.688819 -0.000000 -0.724933
vn -0.965926 -0.000001 0.258820
vn 0.965926 0.000001 -0.258819
vn 0.965926 0.000001 0.258819
vn -0.234069 -0.000000 0.972220
vn 0.259282 -0.963300 0.069476
vn 0.259281 0.963300 0.069476
vn 0.707108 0.000000 -0.707106
vn 0.724933 0.000000 0.688819
vn 0.189808 -0.963299 -0.189808
vn 0.189807 0.963300 -0.189805
vn -0.972220 -0.000001 0.234069
vn -0.069474 -0.963300 -0.259282
vn -0.069475 0.963299 -0.259284
vn 0.234068 0.000000 -0.972220
vn -0.259281 -0.963300 -0.069470
vn -0.259282 0.963300 -0.069473
vn -0.724933 -0.000000 -0.688819
vn -0.189806 -0.963300 0.189805
vn -0.189808 0.963299 0.189808
vn 0.972220 0.000001 -0.234069
vn -0.959002 -0.000001 0.283401
vn 0.069474 -0.963300 0.259282
vn 0.069474 0.963300 0.259280
vn -0.258820 -0.000001 -0.965926
vn 0.000000 -1.000000 0.000000
vn -0.707107 -0.000001 -0.707106
vn -0.965926 -0.000002 -0.258819
vn -0.965926 -0.000002 0.258820
vn -0.707105 -0.000001 0.707108
vn -0.258818 -0.000001 0.965926
vn 0.258819 0.000001 0.965926
vn 0.707107 0.000002 0.707107
vn 0.965926 0.000002 0.258820
vn 0.965926 0.000002 -0.258818
vn 0.707106 0.000001 -0.707108
vn 0.258819 0.000001 -0.965926
vn 0.000000 -1.000000 0.000003
vn 0.000000 -1.000000 0.000005
vn 0.000000 -1.000000 0.000010
vn 0.000000 -1.000000 -0.000005
vn 0.000000 -1.000000 -0.000004
vn 0.000000 -1.000000 -0.000010
vn 0.707107 0.000002 0.707106
vn 0.965926 0.000003 0.258819
vn 0.965926 0.000003 -0.258819
vn 0.707106 0.000002 -0.707107
vn -0.258819 -0.000001 -0.965926
vn -0.707107 -0.000002 -0.707107
vn -0.965926 -0.000003 -0.258819
vn -0.965926 -0.000003 0.258819
vn -0.707107 -0.000002 0.707107
vn -0.258819 -0.000001 0.965926
vn -0.679999 -0.274230 0.680000
vn 0.679999 -0.274230 -0.679999
vn -0.688820 -0.000000 -0.724933
vn -0.965926 -0.000001 0.258819
vn 0.965926 0.000001 0.258818
vn 0.259282 -0.963299 0.069476
vn 0.259281 0.963300 0.069475
vn 0.189808 -0.963300 -0.189806
vn 0.189807 0.963300 -0.189808
vn -0.258820 -0.000000 -0.965926
vn -0.069475 -0.963300 -0.259281
vn -0.069474 0.963300 -0.259280
vn -0.965926 -0.000000 -0.258818
vn -0.259281 -0.963300 -0.069476
vn -0.259282 0.963299 -0.069481
vn -0.189807 -0.963300 0.189805
vn -0.189808 0.963299 0.189810
vn 0.258821 0.000000 0.965925
vn 0.069474 -0.963300 0.259280
vn 0.069474 0.963299 0.259283
vn -0.707107 -0.000001 -0.707107
vn -0.965926 -0.000002 0.258819
vn -0.707108 -0.000001 0.707106
vn 0.707107 0.000001 0.707107
vn 0.965926 0.000002 0.258818
vn 0.965926 0.000002 -0.258819
vn 0.707108 0.000001 -0.707106
vn 0.000000 -1.000000 -0.000006
vn 0.000000 -1.000000 0.000004
vn 0.000000 -1.000000 0.000006
vn 0.000000 -1.000000 0.000001
vn 0.000000 -1.000000 -0.000003
vn 0.965926 0.000003 -0.258820
s off
f 12//1 2//1 13//1
f 1//2 2//2 3//2
f 11//3 2//3 12//3
f 10//4 2//4 11//4
f 9//5 2//5 10//5
f 8//6 2//6 9//6
f 7//7 2//7 8//7
f 6//8 2//8 7//8
f 5//9 2//9 6//9
f 4//10 2//10 5//10
f 13//11 2//11 1//11
f 3//12 2//12 4//12
f 13//13 1//13 25//13
f 25//14 14//14 37//14
f 12//15 13//15 24//15
f 11//16 12//16 23//16
f 10//17 11//17 22//17
f 9//18 10//18 21//18
f 8//19 9//19 20//19
f 7//20 8//20 19//20
f 6//21 7//21 18//21
f 5//22 6//22 17//22
f 4//23 5//23 16//23
f 3//24 4//24 15//24
f 1//25 3//25 14//25
f 37//13 26//13 49//13
f 24//26 25//26 36//26
f 23//27 24//27 35//27
f 22//28 23//28 34//28
f 21//29 22//29 33//29
f 20//30 21//30 32//30
f 19//31 20//31 31//31
f 18//32 19//32 30//32
f 17//33 18//33 29//33
f 16//34 17//34 28//34
f 15//35 16//35 27//35
f 14//36 15//36 26//36
f 38//37 50//37 94//37
f 36//15 37//15 48//15
f 35//16 36//16 47//16
f 34//38 35//38 46//38
f 33//39 34//39 45//39
f 32//19 33//19 44//19
f 31//20 32//20 43//20
f 30//21 31//21 42//21
f 29//22 30//22 41//22
f 28//23 29//23 40//23
f 27//24 28//24 39//24
f 26//25 27//25 38//25
f 61//40 50//40 125//40
f 61//40 60//40 85//40
f 59//41 47//41 100//41
f 41//40 53//40 65//40
f 57//42 45//42 104//42
f 49//40 61//40 73//40
f 55//40 43//40 108//40
f 39//40 51//40 63//40
f 53//43 41//43 88//43
f 60//40 48//40 84//40
f 51//44 39//44 92//44
f 58//40 46//40 82//40
f 72//15 73//15 84//15
f 70//45 71//45 82//45
f 68//19 69//19 80//19
f 66//21 67//21 78//21
f 64//46 65//46 76//46
f 62//25 63//25 74//25
f 43//40 55//40 67//40
f 48//40 49//40 72//40
f 59//40 58//40 83//40
f 45//40 57//40 69//40
f 46//40 47//40 70//40
f 57//40 56//40 81//40
f 44//40 45//40 68//40
f 55//40 54//40 79//40
f 47//40 59//40 71//40
f 42//40 43//40 66//40
f 53//40 52//40 77//40
f 50//40 38//40 74//40
f 52//40 40//40 76//40
f 40//40 41//40 64//40
f 51//40 50//40 75//40
f 54//40 42//40 78//40
f 38//40 39//40 62//40
f 56//40 44//40 80//40
f 86//47 87//47 88//47
f 42//48 54//48 87//48
f 54//49 53//49 89//49
f 41//50 42//50 86//50
f 90//51 91//51 92//51
f 40//52 52//52 91//52
f 52//53 51//53 93//53
f 39//54 40//54 90//54
f 95//13 94//13 97//13
f 61//55 49//55 97//55
f 50//56 61//56 96//56
f 49//57 38//57 95//57
f 98//16 99//16 100//16
f 48//58 60//58 99//58
f 60//59 59//59 101//59
f 47//60 48//60 98//60
f 102//18 103//18 104//18
f 46//61 58//61 105//61
f 58//62 57//62 105//62
f 45//63 46//63 102//63
f 108//64 106//64 112//64
f 44//40 56//40 107//40
f 56//40 55//40 109//40
f 43//40 44//40 106//40
f 110//20 111//20 112//20
f 107//65 109//65 111//65
f 109//66 108//66 113//66
f 106//67 107//67 110//67
f 125//40 114//40 137//40
f 60//40 61//40 124//40
f 59//40 60//40 123//40
f 58//40 59//40 122//40
f 57//40 58//40 121//40
f 56//40 57//40 120//40
f 55//40 56//40 119//40
f 54//40 55//40 118//40
f 53//40 54//40 117//40
f 52//40 53//40 116//40
f 51//40 52//40 115//40
f 50//40 51//40 114//40
f 137//68 126//68 138//68
f 124//40 125//40 136//40
f 123//40 124//40 135//40
f 122//40 123//40 134//40
f 121//40 122//40 133//40
f 120//40 121//40 132//40
f 119//40 120//40 131//40
f 118//40 119//40 130//40
f 117//40 118//40 129//40
f 116//40 117//40 128//40
f 115//40 116//40 127//40
f 114//40 115//40 126//40
f 149//69 138//69 161//69
f 136//70 137//70 149//70
f 135//71 136//71 147//71
f 134//72 135//72 146//72
f 133//73 134//73 145//73
f 132//74 133//74 144//74
f 131//75 132//75 143//75
f 130//76 131//76 142//76
f 129//77 130//77 141//77
f 128//78 129//78 140//78
f 127//79 128//79 140//79
f 126//80 127//80 139//80
f 161//75 150//75 173//75
f 148//81 149//81 160//81
f 147//82 148//82 159//82
f 146//82 147//82 158//82
f 145//83 146//83 157//83
f 144//84 145//84 156//84
f 143//69 144//69 155//69
f 142//85 143//85 154//85
f 141//69 142//69 153//69
f 140//69 141//69 152//69
f 139//86 140//86 151//86
f 138//69 139//69 150//69
f 172//69 170//69 171//69
f 160//87 161//87 172//87
f 159//88 160//88 171//88
f 158//89 159//89 170//89
f 157//90 158//90 169//90
f 156//80 157//80 168//80
f 155//91 156//91 167//91
f 154//92 155//92 166//92
f 153//93 154//93 165//93
f 152//94 153//94 164//94
f 151//95 152//95 163//95
f 150//96 151//96 162//96
f 1//13 14//13 25//13
f 14//14 26//14 37//14
f 13//15 25//15 24//15
f 12//16 24//16 23//16
f 11//17 23//17 22//17
f 10//39 22//39 21//39
f 9//19 21//19 20//19
f 8//20 20//20 19//20
f 7//21 19//21 18//21
f 6//22 18//22 17//22
f 5//23 17//23 16//23
f 4//24 16//24 15//24
f 3//25 15//25 14//25
f 26//13 38//13 49//13
f 25//26 37//26 36//26
f 24//27 36//27 35//27
f 23//28 35//28 34//28
f 22//97 34//97 33//97
f 21//30 33//30 32//30
f 20//31 32//31 31//31
f 19//32 31//32 30//32
f 18//33 30//33 29//33
f 17//34 29//34 28//34
f 16//98 28//98 27//98
f 15//36 27//36 26//36
f 50//37 96//37 94//37
f 37//15 49//15 48//15
f 36//16 48//16 47//16
f 35//17 47//17 46//17
f 34//39 46//39 45//39
f 33//19 45//19 44//19
f 32//20 44//20 43//20
f 31//21 43//21 42//21
f 30//22 42//22 41//22
f 29//23 41//23 40//23
f 28//24 40//24 39//24
f 27//25 39//25 38//25
f 50//40 114//40 125//40
f 60//40 84//40 85//40
f 47//41 98//41 100//41
f 53//40 77//40 65//40
f 45//42 102//42 104//42
f 61//40 85//40 73//40
f 43//40 106//40 108//40
f 51//40 75//40 63//40
f 41//43 86//43 88//43
f 48//40 72//40 84//40
f 39//99 90//99 92//99
f 46//40 70//40 82//40
f 73//15 85//15 84//15
f 71//100 83//100 82//100
f 69//19 81//19 80//19
f 67//21 79//21 78//21
f 65//46 77//46 76//46
f 63//25 75//25 74//25
f 55//40 79//40 67//40
f 49//40 73//40 72//40
f 58//40 82//40 83//40
f 57//40 81//40 69//40
f 47//40 71//40 70//40
f 56//40 80//40 81//40
f 45//40 69//40 68//40
f 54//40 78//40 79//40
f 59//40 83//40 71//40
f 43//40 67//40 66//40
f 52//40 76//40 77//40
f 38//40 62//40 74//40
f 40//40 64//40 76//40
f 41//40 65//40 64//40
f 50//40 74//40 75//40
f 42//40 66//40 78//40
f 39//40 63//40 62//40
f 44//40 68//40 80//40
f 87//101 89//101 88//101
f 54//48 89//48 87//48
f 53//102 88//102 89//102
f 42//103 87//103 86//103
f 91//24 93//24 92//24
f 52//52 93//52 91//52
f 51//104 92//104 93//104
f 40//105 91//105 90//105
f 94//106 96//106 97//106
f 49//55 95//55 97//55
f 61//107 97//107 96//107
f 38//108 94//108 95//108
f 99//109 101//109 100//109
f 60//58 101//58 99//58
f 59//110 100//110 101//110
f 48//111 99//111 98//111
f 103//18 105//18 104//18
f 103//61 46//61 105//61
f 57//112 104//112 105//112
f 46//113 103//113 102//113
f 106//64 110//64 112//64
f 56//40 109//40 107//40
f 55//40 108//40 109//40
f 44//40 107//40 106//40
f 111//114 113//114 112//114
f 109//65 113//65 111//65
f 108//115 112//115 113//115
f 107//116 111//116 110//116
f 114//40 126//40 137//40
f 61//40 125//40 124//40
f 60//40 124//40 123//40
f 59//40 123//40 122//40
f 58//40 122//40 121//40
f 57//40 121//40 120//40
f 56//40 120//40 119//40
f 55//40 119//40 118//40
f 54//40 118//40 117//40
f 53//40 117//40 116//40
f 52//40 116//40 115//40
f 51//40 115//40 114//40
f 149//91 137//91 138//91
f 125//40 137//40 136//40
f 124//40 136//40 135//40
f 123//40 135//40 134//40
f 122//40 134//40 133//40
f 121//40 133//40 132//40
f 120//40 132//40 131//40
f 119//40 131//40 130//40
f 118//40 130//40 129//40
f 117//40 129//40 128//40
f 116//40 128//40 127//40
f 115//40 127//40 126//40
f 138//69 150//69 161//69
f 148//117 136//117 149//117
f 136//71 148//71 147//71
f 135//118 147//118 146//118
f 134//119 146//119 145//119
f 133//96 145//96 144//96
f 132//75 144//75 143//75
f 131//120 143//120 142//120
f 130//121 142//121 141//121
f 129//122 141//122 140//122
f 139//123 127//123 140//123
f 138//80 126//80 139//80
f 150//75 162//75 173//75
f 149//69 161//69 160//69
f 148//84 160//84 159//84
f 147//124 159//124 158//124
f 146//86 158//86 157//86
f 145//82 157//82 156//82
f 144//69 156//69 155//69
f 143//82 155//82 154//82
f 142//125 154//125 153//125
f 141//126 153//126 152//126
f 140//82 152//82 151//82
f 139//82 151//82 150//82
f 172//127 169//127 170//127
f 173//69 169//69 172//69
f 173//69 162//69 169//69
f 162//69 163//69 169//69
f 169//69 163//69 168//69
f 163//69 164//69 168//69
f 164//127 165//127 168//127
f 165//69 166//69 168//69
f 166//128 167//128 168//128
f 161//87 173//87 172//87
f 160//88 172//88 171//88
f 159//129 171//129 170//129
f 158//90 170//90 169//90
f 157//80 169//80 168//80
f 156//91 168//91 167//91
f 155//92 167//92 166//92
f 154//93 166//93 165//93
f 153//94 165//94 164//94
f 152//95 164//95 163//95
f 151//96 163//96 162//96
