# Blender v2.69 (sub 0) OBJ File: 'Ship.blend2'
# www.blender.org
o Cube
v -12.893999 -12.893999 19.341034
v 12.894023 -12.893999 19.341017
v 12.894020 12.894026 19.341000
v -12.894005 12.894019 19.341017
v -5.157573 -5.157571 51.898579
v 5.157636 -5.157571 51.898571
v 5.157635 5.157639 51.898563
v -5.157576 5.157636 51.898571
v -7.959259 19.340981 -53.049458
v 7.959168 19.340990 -53.049469
v -7.959289 19.340950 -100.193588
v 7.959138 19.340960 -100.193596
v -33.846783 -9.670531 -19.340990
v -33.846790 9.670490 -19.341003
v -62.858307 -9.670538 -19.340981
v -62.858315 9.670484 -19.340992
v 33.846771 -9.670506 -19.341030
v 33.846764 9.670507 -19.341043
v 62.858299 -9.670497 -19.341047
v 62.858288 9.670517 -19.341059
v 41.099632 -4.835275 -58.023071
v 41.099621 4.835231 -58.023079
v 55.605392 -4.835270 -58.023083
v 55.605385 4.835237 -58.023087
v -41.099686 -4.835302 -58.023018
v -41.099686 4.835208 -58.023026
v -55.605442 -4.835306 -58.023018
v -55.605453 4.835205 -58.023022
v -36.747921 -7.736401 19.341043
v -36.747921 7.736411 19.341034
v -59.957138 -7.736406 19.341053
v -59.957142 7.736405 19.341043
v 36.747944 -7.736389 19.341000
v 36.747940 7.736425 19.340990
v 59.957161 -7.736382 19.340986
v 59.957161 7.736433 19.340977
v 45.451412 -1.934069 38.682007
v 45.451412 1.934135 38.682003
v 51.253719 -1.934067 38.682003
v 51.253719 1.934137 38.681999
v -45.451370 -1.934087 38.682060
v -45.451374 1.934117 38.682056
v -51.253674 -1.934088 38.682064
v -51.253677 1.934115 38.682060
v -7.959259 19.340981 -53.049458
v 7.959168 19.340990 -53.049469
v -7.959289 19.340950 -100.193588
v 7.959138 19.340960 -100.193596
v 7.252828 7.252832 -82.439278
v 7.252836 -7.252928 -82.439270
v -7.252927 -7.252936 -82.439262
v -7.252932 7.252830 -82.439270
v 2.901090 2.901090 -101.780289
v 2.901093 -2.901214 -101.780289
v -2.901212 -2.901217 -101.780289
v -2.901214 2.901089 -101.780289
vn -0.000000 0.972910 0.231185
vn 0.000000 0.000001 1.000000
vn 0.972910 0.000000 0.231185
vn -0.972910 -0.000000 0.231186
vn 0.000000 -0.972910 0.231186
vn 0.000000 -0.992278 -0.124034
vn -0.000000 0.992278 -0.124035
vn -0.000001 -0.000001 -1.000000
vn 0.982872 0.000000 -0.184289
vn -0.982872 -0.000000 -0.184288
vn -0.000002 -0.000001 -1.000000
vn -0.982872 -0.000001 -0.184288
vn 0.000000 -0.957826 0.287348
vn 0.000000 -0.957826 0.287349
vn 0.000001 0.000001 1.000000
vn -0.000000 0.957826 0.287347
vn 0.911922 0.000001 0.410364
vn -0.911921 0.000000 0.410365
vn -0.911921 0.000001 0.410365
vn 0.911922 0.000000 0.410364
vn -0.000000 0.975610 -0.219513
vn 0.000000 0.000000 -1.000000
vn 0.000000 -0.975610 -0.219512
vn -0.975610 -0.000000 -0.219512
vn 0.975610 0.000000 -0.219513
vn -0.000001 -0.000000 -1.000000
vn 0.982872 0.000002 -0.184289
vn -0.982872 -0.000002 -0.184288
vn 0.000001 -0.000000 -1.000000
vn 0.000001 -0.957826 0.287349
vn 0.000003 0.000001 1.000000
vn 0.911922 -0.000002 0.410364
vn -0.000000 0.957826 0.287348
vn 0.911922 -0.000000 0.410365
vn 0.000000 -0.975610 -0.219511
vn 0.975610 0.000001 -0.219513
s off
f 3//1 4//1 7//1
f 5//2 6//2 8//2
f 2//3 3//3 6//3
f 4//4 1//4 8//4
f 1//5 2//5 5//5
f 13//6 15//6 25//6
f 18//7 20//7 22//7
f 21//8 22//8 23//8
f 19//6 17//6 23//6
f 20//9 19//9 24//9
f 17//10 18//10 21//10
f 26//11 25//11 28//11
f 16//7 14//7 28//7
f 15//12 16//12 27//12
f 14//9 13//9 26//9
f 31//13 29//13 43//13
f 33//14 35//14 37//14
f 38//15 37//15 40//15
f 36//16 34//16 40//16
f 35//17 36//17 39//17
f 34//18 33//18 38//18
f 41//2 42//2 44//2
f 30//16 32//16 42//16
f 32//19 31//19 44//19
f 29//20 30//20 41//20
f 52//21 49//21 56//21
f 56//22 53//22 55//22
f 50//23 51//23 54//23
f 51//24 52//24 55//24
f 49//25 50//25 53//25
f 4//1 8//1 7//1
f 6//2 7//2 8//2
f 3//3 7//3 6//3
f 1//4 5//4 8//4
f 2//5 6//5 5//5
f 15//6 27//6 25//6
f 20//7 24//7 22//7
f 22//26 24//26 23//26
f 17//6 21//6 23//6
f 19//27 23//27 24//27
f 18//28 22//28 21//28
f 25//29 27//29 28//29
f 14//7 26//7 28//7
f 16//10 28//10 27//10
f 13//9 25//9 26//9
f 29//30 41//30 43//30
f 35//30 39//30 37//30
f 37//31 39//31 40//31
f 34//16 38//16 40//16
f 36//32 40//32 39//32
f 33//18 37//18 38//18
f 43//2 41//2 44//2
f 32//33 44//33 42//33
f 31//19 43//19 44//19
f 30//34 42//34 41//34
f 49//21 53//21 56//21
f 53//22 54//22 55//22
f 51//35 55//35 54//35
f 52//24 56//24 55//24
f 50//36 54//36 53//36
