# Blender v2.69 (sub 0) OBJ File: 'Ship.blend'
# www.blender.org
o Cube
v 24.816788 25.000015 24.999952
v -25.183210 24.999985 25.000048
v -25.183176 -25.000019 25.000048
v 24.816830 -24.999975 24.999952
v 24.816681 25.000027 -25.000048
v -25.183321 24.999968 -24.999952
v -25.183266 -25.000025 -24.999952
v 24.816725 -24.999985 -25.000048
v 24.816397 25.000027 -173.080414
v -25.183605 24.999968 -173.080322
v -25.183550 -25.000025 -173.080322
v 24.816441 -24.999985 -173.080414
v 13.784855 13.968463 -173.080399
v -14.152043 13.968430 -173.080338
v -14.152013 -13.968463 -173.080338
v 13.784880 -13.968440 -173.080399
v 13.784820 13.968463 -191.495697
v -14.152079 13.968430 -191.495636
v -14.152048 -13.968463 -191.495636
v 13.784844 -13.968440 -191.495697
v 16.483461 16.666679 24.999968
v -16.849873 16.666656 25.000032
v -16.849846 -16.666681 25.000032
v 16.483492 -16.666649 24.999968
v 16.483543 16.666679 67.083534
v -16.849791 16.666656 67.083595
v -16.849764 -16.666681 67.083595
v 16.483574 -16.666649 67.083534
v 10.104592 25.000010 -68.571198
v -10.471403 24.999985 -68.571152
v 10.104475 25.000010 -129.509216
v -10.471520 24.999985 -129.509186
v 10.104592 25.000010 -68.571198
v -10.471403 24.999985 -68.571152
v 10.104475 25.000010 -129.509216
v -10.471520 24.999985 -129.509186
v 10.104592 25.000010 -68.571198
v -10.471403 24.999985 -68.571152
v 10.104475 25.000010 -129.509216
v -10.471520 24.999985 -129.509186
v 10.104592 25.000010 -68.571198
v -10.471403 24.999985 -68.571152
v 10.104475 25.000010 -129.509216
v -10.471520 24.999985 -129.509186
v 10.104653 -24.999990 -68.571198
v -10.471342 -25.000015 -68.571152
v 10.104536 -24.999990 -129.509216
v -10.471459 -25.000015 -129.509186
v 10.104653 -24.999990 -68.571198
v -10.471342 -25.000015 -68.571152
v 10.104536 -24.999990 -129.509216
v -10.471459 -25.000015 -129.509186
v 24.816788 25.000015 24.999952
v 24.816830 -24.999975 24.999952
v 24.816681 25.000027 -25.000048
v 24.816725 -24.999985 -25.000048
v 99.816788 25.000082 24.999792
v 99.816833 -24.999908 24.999792
v 99.816681 25.000095 -25.000208
v 99.816727 -24.999918 -25.000208
v -100.183212 24.999914 25.000202
v -100.183174 -25.000088 25.000202
v -100.183319 24.999897 -24.999800
v -100.183258 -25.000095 -24.999800
v 43.566692 12.500041 -25.000088
v 43.566711 -12.499965 -25.000088
v 81.066689 12.500074 -25.000168
v 81.066719 -12.499931 -25.000168
v -43.933308 12.499953 -24.999914
v -43.933277 -12.500043 -24.999914
v -81.433304 12.499917 -24.999838
v -81.433273 -12.500079 -24.999838
v -57.995899 3.124941 -74.999886
v -57.995892 -3.125058 -74.999886
v -67.370895 3.124933 -74.999870
v -67.370895 -3.125067 -74.999870
v 57.629089 3.125052 -75.000114
v 57.629097 -3.124950 -75.000114
v 67.004097 3.125059 -75.000130
v 67.004097 -3.124942 -75.000130
v 47.316799 10.000039 24.999905
v 47.316818 -9.999958 24.999905
v 77.316795 10.000066 24.999842
v 77.316811 -9.999932 24.999842
v -47.683201 9.999963 25.000095
v -47.683182 -10.000039 25.000095
v -77.683205 9.999935 25.000154
v -77.683189 -10.000067 25.000154
v -47.683151 9.999963 50.000092
v -47.683132 -10.000039 50.000092
v -77.683151 9.999935 50.000156
v -77.683136 -10.000067 50.000156
v 47.316849 10.000039 49.999905
v 47.316868 -9.999958 49.999905
v 77.316849 10.000066 49.999844
v 77.316872 -9.999932 49.999844
v 10.104653 -24.999990 -68.571198
v -10.471342 -25.000015 -68.571152
v 10.104536 -24.999990 -129.509216
v -10.471459 -25.000015 -129.509186
vn 0.000002 -0.000000 1.000000
vn 0.000001 -1.000000 -0.000000
vn -0.000001 1.000000 0.000000
vn -0.000002 -0.000000 -1.000000
vn 0.000000 0.000000 1.000000
vn -0.000003 -0.000000 -1.000000
vn -1.000000 -0.000001 0.000002
vn 1.000000 0.000001 -0.000002
vn 0.000000 -0.000000 -1.000000
vn 0.000002 -0.000000 -1.000000
vn 0.000001 0.000000 1.000000
vn -0.000001 0.982872 -0.184289
vn 0.000001 -0.982872 -0.184289
vn -0.000001 0.000000 -1.000000
vn -0.962651 -0.000001 -0.270743
vn 0.962650 0.000001 -0.270748
vn -0.962651 -0.000001 -0.270744
vn 1.000000 0.000000 -0.000002
vn -0.000002 0.000001 -1.000000
vn -0.000006 -0.000000 -1.000000
vn -0.000003 0.000001 -1.000000
vn -0.000001 0.982872 -0.184288
vn -0.962651 0.000000 -0.270744
vn 0.962650 0.000000 -0.270748
vn 0.000000 -0.982872 -0.184289
vn -0.962651 0.000000 -0.270743
vn -1.000000 0.000000 0.000002
s off
f 3//1 4//1 23//1
f 8//2 7//2 12//2
f 1//3 5//3 2//3
f 7//4 64//4 70//4
f 3//2 7//2 4//2
f 8//5 5//5 56//5
f 12//6 11//6 16//6
f 7//7 6//7 11//7
f 5//8 8//8 9//8
f 5//3 9//3 29//3
f 16//2 15//2 20//2
f 11//9 10//9 15//9
f 9//10 12//10 13//10
f 10//4 9//4 14//4
f 17//6 20//6 18//6
f 15//7 14//7 19//7
f 13//8 16//8 17//8
f 14//3 13//3 18//3
f 23//2 24//2 27//2
f 2//1 3//1 22//1
f 4//1 1//1 24//1
f 1//1 2//1 21//1
f 25//1 26//1 28//1
f 22//7 23//7 26//7
f 24//8 21//8 28//8
f 21//3 22//3 25//3
f 29//5 31//5 33//5
f 10//3 6//3 32//3
f 9//3 10//3 31//3
f 6//3 5//3 30//3
f 33//5 35//5 37//5
f 32//5 30//5 36//5
f 31//5 32//5 35//5
f 30//5 29//5 34//5
f 37//5 39//5 41//5
f 36//5 34//5 40//5
f 35//5 36//5 39//5
f 34//5 33//5 38//5
f 41//7 43//7 45//7
f 40//5 38//5 44//5
f 39//5 40//5 43//5
f 38//5 37//5 42//5
f 45//5 47//5 49//5
f 44//8 42//8 48//8
f 43//11 44//11 47//11
f 42//4 41//4 46//4
f 49//5 51//5 97//5
f 48//5 46//5 52//5
f 47//5 48//5 51//5
f 46//5 45//5 50//5
f 55//4 59//4 65//4
f 4//5 8//5 54//5
f 5//5 1//5 55//5
f 1//5 4//5 53//5
f 59//8 57//8 60//8
f 54//2 56//2 58//2
f 55//3 53//3 59//3
f 57//1 53//1 83//1
f 61//7 63//7 62//7
f 7//2 3//2 64//2
f 2//3 6//3 61//3
f 2//1 61//1 85//1
f 65//12 67//12 77//12
f 60//4 56//4 68//4
f 59//4 60//4 67//4
f 56//4 55//4 66//4
f 70//13 72//13 74//13
f 63//4 6//4 71//4
f 64//4 63//4 72//4
f 6//4 7//4 69//4
f 73//14 74//14 75//14
f 71//12 69//12 75//12
f 72//15 71//15 76//15
f 69//16 70//16 73//16
f 78//4 77//4 80//4
f 68//13 66//13 80//13
f 67//16 68//16 79//16
f 66//17 65//17 78//17
f 83//3 81//3 95//3
f 54//1 58//1 82//1
f 58//1 57//1 84//1
f 53//1 54//1 81//1
f 85//3 87//3 89//3
f 62//1 3//1 88//1
f 61//1 62//1 87//1
f 3//1 2//1 86//1
f 90//1 89//1 92//1
f 88//2 86//2 92//2
f 87//7 88//7 91//7
f 86//8 85//8 90//8
f 93//1 94//1 95//1
f 82//2 84//2 94//2
f 84//18 83//18 96//18
f 81//7 82//7 93//7
f 98//3 97//3 100//3
f 52//5 50//5 100//5
f 51//5 52//5 99//5
f 50//5 49//5 98//5
f 4//1 24//1 23//1
f 7//2 11//2 12//2
f 5//3 6//3 2//3
f 64//4 72//4 70//4
f 7//2 8//2 4//2
f 5//5 55//5 56//5
f 11//19 15//19 16//19
f 6//7 10//7 11//7
f 8//8 12//8 9//8
f 9//3 31//3 29//3
f 15//2 19//2 20//2
f 10//20 14//20 15//20
f 12//20 16//20 13//20
f 9//21 13//21 14//21
f 20//6 19//6 18//6
f 14//7 18//7 19//7
f 16//8 20//8 17//8
f 13//3 17//3 18//3
f 24//2 28//2 27//2
f 3//1 23//1 22//1
f 1//1 21//1 24//1
f 2//1 22//1 21//1
f 26//1 27//1 28//1
f 23//7 27//7 26//7
f 21//8 25//8 28//8
f 22//3 26//3 25//3
f 31//5 35//5 33//5
f 6//3 30//3 32//3
f 10//3 32//3 31//3
f 5//3 29//3 30//3
f 35//5 39//5 37//5
f 30//5 34//5 36//5
f 32//5 36//5 35//5
f 29//5 33//5 34//5
f 39//5 43//5 41//5
f 34//5 38//5 40//5
f 36//5 40//5 39//5
f 33//5 37//5 38//5
f 43//7 47//7 45//7
f 38//5 42//5 44//5
f 40//5 44//5 43//5
f 37//5 41//5 42//5
f 47//5 51//5 49//5
f 42//8 46//8 48//8
f 44//11 48//11 47//11
f 41//4 45//4 46//4
f 51//5 99//5 97//5
f 46//5 50//5 52//5
f 48//5 52//5 51//5
f 45//5 49//5 50//5
f 59//4 67//4 65//4
f 8//5 56//5 54//5
f 1//5 53//5 55//5
f 4//5 54//5 53//5
f 57//8 58//8 60//8
f 56//2 60//2 58//2
f 53//3 57//3 59//3
f 53//1 81//1 83//1
f 63//7 64//7 62//7
f 3//2 62//2 64//2
f 6//3 63//3 61//3
f 61//1 87//1 85//1
f 67//22 79//22 77//22
f 56//4 66//4 68//4
f 60//4 68//4 67//4
f 55//4 65//4 66//4
f 72//13 76//13 74//13
f 6//4 69//4 71//4
f 63//4 71//4 72//4
f 7//4 70//4 69//4
f 74//6 76//6 75//6
f 69//22 73//22 75//22
f 71//23 75//23 76//23
f 70//24 74//24 73//24
f 77//14 79//14 80//14
f 66//25 78//25 80//25
f 68//24 80//24 79//24
f 65//26 77//26 78//26
f 81//3 93//3 95//3
f 58//1 84//1 82//1
f 57//1 83//1 84//1
f 54//1 82//1 81//1
f 87//3 91//3 89//3
f 3//1 86//1 88//1
f 62//1 88//1 87//1
f 2//1 85//1 86//1
f 89//1 91//1 92//1
f 86//2 90//2 92//2
f 88//27 92//27 91//27
f 85//8 89//8 90//8
f 94//1 96//1 95//1
f 84//2 96//2 94//2
f 83//8 95//8 96//8
f 82//27 94//27 93//27
f 97//3 99//3 100//3
f 50//5 98//5 100//5
f 52//5 100//5 99//5
f 49//5 97//5 98//5
