# Blender v2.69 (sub 0) OBJ File: 'Ship.blend'
# www.blender.org
o Cube
v 5.000000 -5.000000 -5.000000
v 5.000000 -5.000000 5.000000
v -5.000000 -5.000000 4.999999
v -4.999998 -5.000000 -5.000002
v 5.000002 5.000000 -4.999997
v 4.999997 5.000000 5.000003
v -5.000002 5.000000 4.999998
v -5.000000 5.000000 -5.000000
v 5.000002 34.616074 -4.999997
v 4.999997 34.616074 5.000003
v -5.000002 34.616074 4.999998
v -5.000000 34.616074 -5.000000
v 2.793691 34.616074 -2.793688
v 2.793688 34.616074 2.793692
v -2.793691 34.616074 2.793689
v -2.793690 34.616074 -2.793689
v 2.793691 38.299133 -2.793688
v 2.793688 38.299133 2.793692
v -2.793691 38.299133 2.793689
v -2.793690 38.299133 -2.793689
v 3.333333 -5.000000 -3.333333
v 3.333333 -5.000000 3.333333
v -3.333334 -5.000000 3.333333
v -3.333332 -5.000000 -3.333335
v 3.333333 -13.416712 -3.333333
v 3.333333 -13.416712 3.333333
v -3.333334 -13.416712 3.333333
v -3.333332 -13.416712 -3.333335
v 5.000000 13.714235 -2.057597
v 4.999998 13.714235 2.057602
v 5.000000 25.901840 -2.057597
v 4.999998 25.901840 2.057602
v 5.000000 13.714235 -2.057597
v 4.999998 13.714235 2.057602
v 5.000000 25.901840 -2.057597
v 4.999998 25.901840 2.057602
v 5.000000 13.714235 -2.057597
v 4.999998 13.714235 2.057602
v 5.000000 25.901840 -2.057597
v 4.999998 25.901840 2.057602
v 5.000000 13.714235 -2.057597
v 4.999998 13.714235 2.057602
v 5.000000 25.901840 -2.057597
v 4.999998 25.901840 2.057602
v -5.000000 13.714235 -2.057603
v -5.000002 13.714235 2.057597
v -5.000000 25.901840 -2.057603
v -5.000002 25.901840 2.057597
v -5.000000 13.714235 -2.057603
v -5.000002 13.714235 2.057597
v -5.000000 25.901840 -2.057603
v -5.000002 25.901840 2.057597
v 5.000000 -5.000000 -5.000000
v -4.999998 -5.000000 -5.000002
v 5.000002 5.000000 -4.999997
v -5.000000 5.000000 -5.000000
v 5.000004 -4.999997 -20.000000
v -4.999995 -4.999997 -20.000002
v 5.000006 5.000003 -19.999998
v -4.999996 5.000003 -20.000000
v 4.999996 -5.000002 20.000000
v -5.000005 -5.000002 19.999998
v 4.999992 4.999999 20.000002
v -5.000006 4.999999 19.999998
v 2.500003 5.000000 -8.749998
v -2.499999 5.000000 -8.749999
v 2.500005 5.000002 -16.249998
v -2.499997 5.000002 -16.250000
v 2.499996 5.000000 8.750001
v -2.500003 5.000000 8.749999
v 2.499994 4.999999 16.250002
v -2.500005 4.999999 16.249998
v 2.499996 15.000000 8.750002
v -2.500003 15.000000 8.750000
v 2.499994 14.999999 16.250002
v -2.500005 14.999999 16.250000
v 2.500003 15.000000 -8.749996
v -2.499999 15.000000 -8.749997
v 2.500005 15.000002 -16.249996
v -2.499997 15.000002 -16.249998
v 2.000002 -5.000000 -9.500000
v -1.999998 -5.000000 -9.500000
v 2.000003 -4.999998 -15.500000
v -1.999996 -4.999998 -15.500001
v 1.999999 -5.000000 9.500000
v -2.000002 -5.000000 9.499999
v 1.999997 -5.000001 15.500000
v -2.000003 -5.000001 15.500000
v 1.999999 -10.000000 9.499999
v -2.000002 -10.000000 9.499999
v 1.999997 -10.000001 15.500000
v -2.000003 -10.000001 15.500000
v 2.000002 -9.999999 -9.500001
v -1.999998 -9.999999 -9.500002
v 2.000003 -9.999998 -15.500001
v -1.999996 -9.999998 -15.500002
v -5.000000 13.714235 -2.057603
v -5.000002 13.714235 2.057597
v -5.000000 25.901840 -2.057603
v -5.000002 25.901840 2.057597
vn 0.000000 -1.000000 0.000000
vn -1.000000 0.000000 -0.000000
vn 1.000000 -0.000000 0.000000
vn 0.000000 1.000000 0.000000
vn 0.000000 0.000000 1.000000
vn 0.000000 1.000000 0.000001
vn -0.000001 0.000000 1.000000
vn 0.000000 0.000000 -1.000000
vn 1.000000 0.000000 0.000001
vn 0.000000 1.000000 -0.000001
vn 0.000001 0.000000 -1.000000
vn 0.000000 -1.000000 -0.000001
vn 0.000000 1.000000 -0.000002
vn 0.000000 1.000000 -0.000005
s off
f 3//1 4//1 23//1
f 8//2 7//2 12//2
f 1//3 5//3 2//3
f 7//4 64//4 70//4
f 3//2 7//2 4//2
f 8//5 5//5 56//5
f 12//6 11//6 16//6
f 7//7 6//7 11//7
f 5//8 8//8 9//8
f 5//9 9//9 29//9
f 16//2 15//2 20//2
f 11//4 10//4 15//4
f 9//4 12//4 13//4
f 10//4 9//4 14//4
f 17//10 20//10 18//10
f 15//5 14//5 19//5
f 13//8 16//8 17//8
f 14//9 13//9 18//9
f 23//2 24//2 27//2
f 2//1 3//1 22//1
f 4//1 1//1 24//1
f 1//1 2//1 21//1
f 25//1 26//1 28//1
f 22//5 23//5 26//5
f 24//8 21//8 28//8
f 21//3 22//3 25//3
f 29//5 31//5 33//5
f 10//3 6//3 32//3
f 9//9 10//9 31//9
f 6//9 5//9 30//9
f 33//5 35//5 37//5
f 32//5 30//5 36//5
f 31//5 32//5 35//5
f 30//5 29//5 34//5
f 37//5 39//5 41//5
f 36//5 34//5 40//5
f 35//5 36//5 39//5
f 34//5 33//5 38//5
f 41//7 43//7 45//7
f 40//5 38//5 44//5
f 39//5 40//5 43//5
f 38//5 37//5 42//5
f 45//5 47//5 49//5
f 44//11 42//11 48//11
f 43//1 44//1 47//1
f 42//4 41//4 46//4
f 49//5 51//5 97//5
f 48//5 46//5 52//5
f 47//5 48//5 51//5
f 46//5 45//5 50//5
f 55//4 59//4 65//4
f 4//5 8//5 54//5
f 5//5 1//5 55//5
f 1//5 4//5 53//5
f 59//8 57//8 60//8
f 54//2 56//2 58//2
f 55//3 53//3 59//3
f 57//1 53//1 83//1
f 61//5 63//5 62//5
f 7//2 3//2 64//2
f 2//3 6//3 61//3
f 2//1 61//1 85//1
f 65//3 67//3 77//3
f 60//4 56//4 68//4
f 59//4 60//4 67//4
f 56//4 55//4 66//4
f 70//2 72//2 74//2
f 63//4 6//4 71//4
f 64//4 63//4 72//4
f 6//4 7//4 69//4
f 73//4 74//4 75//4
f 71//3 69//3 75//3
f 72//5 71//5 76//5
f 69//11 70//11 73//11
f 78//4 77//4 80//4
f 68//2 66//2 80//2
f 67//11 68//11 79//11
f 66//5 65//5 78//5
f 83//3 81//3 95//3
f 54//1 58//1 82//1
f 58//1 57//1 84//1
f 53//1 54//1 81//1
f 85//3 87//3 89//3
f 62//1 3//1 88//1
f 61//1 62//1 87//1
f 3//1 2//1 86//1
f 90//1 89//1 92//1
f 88//2 86//2 92//2
f 87//5 88//5 91//5
f 86//8 85//8 90//8
f 93//12 94//12 95//12
f 82//2 84//2 94//2
f 84//8 83//8 96//8
f 81//5 82//5 93//5
f 98//9 97//9 100//9
f 52//5 50//5 100//5
f 51//5 52//5 99//5
f 50//5 49//5 98//5
f 4//1 24//1 23//1
f 7//2 11//2 12//2
f 5//9 6//9 2//9
f 64//4 72//4 70//4
f 7//2 8//2 4//2
f 5//5 55//5 56//5
f 11//10 15//10 16//10
f 6//7 10//7 11//7
f 8//8 12//8 9//8
f 9//9 31//9 29//9
f 15//2 19//2 20//2
f 10//13 14//13 15//13
f 12//14 16//14 13//14
f 9//4 13//4 14//4
f 20//4 19//4 18//4
f 14//7 18//7 19//7
f 16//8 20//8 17//8
f 13//9 17//9 18//9
f 24//2 28//2 27//2
f 3//12 23//12 22//12
f 1//1 21//1 24//1
f 2//1 22//1 21//1
f 26//1 27//1 28//1
f 23//5 27//5 26//5
f 21//8 25//8 28//8
f 22//3 26//3 25//3
f 31//5 35//5 33//5
f 6//3 30//3 32//3
f 10//9 32//9 31//9
f 5//9 29//9 30//9
f 35//5 39//5 37//5
f 30//5 34//5 36//5
f 32//5 36//5 35//5
f 29//5 33//5 34//5
f 39//5 43//5 41//5
f 34//5 38//5 40//5
f 36//5 40//5 39//5
f 33//5 37//5 38//5
f 43//7 47//7 45//7
f 38//5 42//5 44//5
f 40//5 44//5 43//5
f 37//5 41//5 42//5
f 47//5 51//5 49//5
f 42//11 46//11 48//11
f 44//1 48//1 47//1
f 41//4 45//4 46//4
f 51//5 99//5 97//5
f 46//5 50//5 52//5
f 48//5 52//5 51//5
f 45//5 49//5 50//5
f 59//4 67//4 65//4
f 8//5 56//5 54//5
f 1//5 53//5 55//5
f 4//5 54//5 53//5
f 57//8 58//8 60//8
f 56//2 60//2 58//2
f 53//3 57//3 59//3
f 53//1 81//1 83//1
f 63//5 64//5 62//5
f 3//2 62//2 64//2
f 6//3 63//3 61//3
f 61//1 87//1 85//1
f 67//3 79//3 77//3
f 56//4 66//4 68//4
f 60//6 68//6 67//6
f 55//4 65//4 66//4
f 72//2 76//2 74//2
f 6//4 69//4 71//4
f 63//4 71//4 72//4
f 7//4 70//4 69//4
f 74//4 76//4 75//4
f 69//3 73//3 75//3
f 71//7 75//7 76//7
f 70//8 74//8 73//8
f 77//4 79//4 80//4
f 66//2 78//2 80//2
f 68//11 80//11 79//11
f 65//7 77//7 78//7
f 81//3 93//3 95//3
f 58//1 84//1 82//1
f 57//1 83//1 84//1
f 54//1 82//1 81//1
f 87//3 91//3 89//3
f 3//1 86//1 88//1
f 62//1 88//1 87//1
f 2//1 85//1 86//1
f 89//1 91//1 92//1
f 86//2 90//2 92//2
f 88//5 92//5 91//5
f 85//8 89//8 90//8
f 94//1 96//1 95//1
f 84//2 96//2 94//2
f 83//11 95//11 96//11
f 82//5 94//5 93//5
f 97//9 99//9 100//9
f 50//5 98//5 100//5
f 52//5 100//5 99//5
f 49//5 97//5 98//5
