# Blender v2.69 (sub 0) OBJ File: 'Alien1.blend2'
# www.blender.org
o Cube
v 6.782867 6.782837 11.304722
v -6.782814 6.782845 11.304749
v -6.782823 -6.782838 11.304749
v 6.782862 -6.782843 11.304722
v 20.348549 6.782832 11.304695
v 20.348543 -6.782849 11.304695
v -20.348499 6.782849 11.304775
v -20.348505 -6.782834 11.304775
v 6.782901 6.782837 28.261824
v -6.782780 6.782845 28.261850
v -6.782789 -6.782838 28.261850
v 6.782896 -6.782843 28.261824
v 20.348583 6.782832 28.261799
v 20.348577 -6.782849 28.261799
v -20.348465 6.782849 28.261875
v -20.348473 -6.782834 28.261875
v 40.697044 2.260930 -0.000082
v 40.697048 -2.260963 -0.000082
v 49.740837 2.260926 -0.000100
v 49.740837 -2.260967 -0.000100
v 40.697083 2.260930 16.957020
v 40.697086 -2.260963 16.957020
v 49.740871 2.260926 16.957003
v 49.740871 -2.260967 16.957003
v -40.697044 2.260960 0.000079
v -40.697044 -2.260934 0.000079
v -49.740837 2.260963 0.000097
v -49.740837 -2.260931 0.000097
v -40.697010 2.260960 16.957182
v -40.697010 -2.260934 16.957182
v -49.740803 2.260963 16.957199
v -49.740803 -2.260931 16.957199
vn -0.000000 -1.000000 0.000000
vn 0.000000 1.000000 -0.000000
vn 0.000002 -0.000000 1.000000
vn -1.000000 0.000000 0.000002
vn 1.000000 -0.000001 -0.000002
vn 1.000000 0.000000 -0.000002
vn -1.000000 -0.000002 0.000002
vn -1.000000 0.000001 0.000002
vn 0.000001 0.000000 1.000000
s off
f 8//1 3//1 16//1
f 2//2 7//2 10//2
f 9//3 12//3 13//3
f 11//3 10//3 16//3
f 7//4 8//4 15//4
f 5//2 1//2 13//2
f 4//1 6//1 12//1
f 6//5 5//5 14//5
f 3//5 2//5 11//5
f 1//4 4//4 9//4
f 19//2 17//2 23//2
f 21//3 22//3 24//3
f 18//1 20//1 22//1
f 20//6 19//6 24//6
f 17//7 18//7 21//7
f 25//2 27//2 29//2
f 30//3 29//3 32//3
f 28//1 26//1 32//1
f 27//4 28//4 31//4
f 26//6 25//6 30//6
f 3//1 11//1 16//1
f 7//2 15//2 10//2
f 12//3 14//3 13//3
f 10//3 15//3 16//3
f 8//8 16//8 15//8
f 1//2 9//2 13//2
f 6//1 14//1 12//1
f 5//6 13//6 14//6
f 2//5 10//5 11//5
f 4//4 12//4 9//4
f 17//2 21//2 23//2
f 23//3 21//3 24//3
f 20//1 24//1 22//1
f 19//6 23//6 24//6
f 18//4 22//4 21//4
f 27//2 31//2 29//2
f 29//9 31//9 32//9
f 26//1 30//1 32//1
f 28//4 32//4 31//4
f 25//6 29//6 30//6
