# Blender v2.69 (sub 0) OBJ File: 'Alien2.blend'
# www.blender.org
o Cube
v -8.716800 -8.716805 -8.716793
v -8.716800 -8.716794 8.716805
v -8.716800 8.716806 8.716792
v -8.716800 8.716791 -8.716808
v 8.716800 -8.716809 -8.716789
v 8.716800 -8.716788 8.716810
v 8.716800 8.716808 8.716791
v 8.716800 8.716793 -8.716805
v 8.716800 -8.716809 -8.716789
v 8.716800 -8.716788 8.716810
v 8.716800 8.716808 8.716791
v 8.716800 8.716793 -8.716805
v 26.150398 -8.716809 -8.716789
v 26.150398 -8.716788 8.716810
v 26.150398 8.716808 8.716791
v 26.150398 8.716793 -8.716805
v -8.716801 -8.716776 26.150404
v -8.716801 8.716825 26.150391
v 8.716799 -8.716770 26.150410
v 8.716799 8.716826 26.150389
v 8.716799 -8.716770 26.150410
v 8.716799 8.716826 26.150389
v 26.150398 -8.716770 26.150410
v 26.150398 8.716826 26.150389
v -8.716798 -8.716821 -26.150393
v -8.716798 8.716775 -26.150410
v 8.716802 -8.716825 -26.150389
v 8.716802 8.716778 -26.150404
v 8.716802 -8.716825 -26.150389
v 8.716802 8.716779 -26.150404
v 26.150402 -8.716825 -26.150389
v 26.150402 8.716779 -26.150404
v 11.331841 -6.101784 -26.150391
v 11.331841 6.101738 -26.150402
v 23.535362 -6.101784 -26.150391
v 23.535362 6.101738 -26.150402
v 8.716799 -8.716770 26.150410
v 8.716799 8.716826 26.150389
v 26.150398 -8.716770 26.150410
v 26.150398 8.716826 26.150389
v 11.331840 -6.101731 26.150406
v 11.331840 6.101786 26.150393
v 23.535360 -6.101731 26.150406
v 23.535360 6.101786 26.150393
v 11.331840 -6.101715 43.584003
v 11.331840 6.101803 43.583996
v 23.535360 -6.101715 43.584003
v 23.535360 6.101803 43.583996
v 11.331841 -6.101801 -43.583992
v 11.331841 6.101722 -43.584003
v 23.535362 -6.101801 -43.583992
v 23.535362 6.101722 -43.584003
v 26.150398 -6.101766 -6.101752
v 26.150398 -6.101751 6.101768
v 26.150398 6.101766 6.101754
v 26.150398 6.101756 -6.101764
v 26.150398 -6.101738 18.305286
v 26.150398 6.101779 18.305273
v 26.150402 -6.101778 -18.305273
v 26.150402 6.101745 -18.305283
v 34.867199 -6.101766 -6.101752
v 34.867199 -6.101751 6.101768
v 34.867199 6.101766 6.101755
v 34.867199 6.101756 -6.101763
v 34.867199 -6.101738 18.305286
v 34.867199 6.101779 18.305273
v 34.867199 -6.101778 -18.305273
v 34.867199 6.101745 -18.305283
v 23.535362 -4.881433 -27.893751
v 23.535362 4.881384 -27.893761
v 23.535362 -4.881448 -41.840633
v 23.535362 4.881371 -41.840645
v 23.535360 -4.881377 27.893766
v 23.535360 4.881436 27.893753
v 23.535360 -4.881364 41.840645
v 23.535360 4.881450 41.840637
v 30.508801 -4.881433 -27.893751
v 30.508801 4.881384 -27.893761
v 30.508801 -4.881448 -41.840633
v 30.508801 4.881371 -41.840645
v 30.508799 -4.881377 27.893766
v 30.508799 4.881436 27.893753
v 30.508799 -4.881364 41.840645
v 30.508799 4.881450 41.840637
v 12.203520 -8.716805 -5.230070
v 12.203520 -8.716792 5.230091
v 22.663679 -8.716805 -5.230070
v 22.663679 -8.716792 5.230091
v 12.203518 -8.716781 15.690251
v 22.663679 -8.716781 15.690251
v 12.203521 -8.716814 -15.690229
v 22.663681 -8.716814 -15.690229
v 12.203520 -8.716805 -5.230070
v 12.203520 -8.716792 5.230091
v 22.663679 -8.716805 -5.230070
v 22.663679 -8.716792 5.230091
v 12.203518 -8.716781 15.690251
v 22.663679 -8.716781 15.690251
v 12.203521 -8.716814 -15.690229
v 22.663681 -8.716814 -15.690229
v 12.203520 -13.946886 -5.230065
v 12.203520 -13.946872 5.230095
v 22.663679 -13.946886 -5.230065
v 22.663679 -13.946872 5.230095
v 12.203518 -13.946861 15.690256
v 22.663679 -13.946861 15.690256
v 12.203521 -13.946895 -15.690225
v 22.663681 -13.946895 -15.690225
v -8.716800 -6.101764 -6.101756
v -8.716800 -6.101756 6.101764
v -8.716800 6.101764 6.101754
v -8.716800 6.101754 -6.101767
v -8.716801 -6.101743 18.305283
v -8.716801 6.101777 18.305273
v -8.716798 -6.101775 -18.305277
v -8.716798 6.101743 -18.305286
v -26.150398 -6.101764 -6.101757
v -26.150398 -6.101756 6.101762
v -26.150398 6.101764 6.101753
v -26.150398 6.101754 -6.101768
v -26.150398 -6.101743 18.305281
v -26.150398 6.101777 18.305271
v -26.150396 -6.101775 -18.305279
v -26.150396 6.101743 -18.305288
v -34.867199 -6.101764 -6.101757
v -34.867199 -6.101756 6.101762
v -34.867199 6.101764 6.101753
v -34.867199 6.101754 -6.101768
v -11.331839 -4.271247 -18.305279
v -11.331839 4.271215 -18.305285
v -23.535358 -4.271247 -18.305281
v -23.535358 4.271215 -18.305286
v -11.331841 -4.271215 18.305281
v -11.331841 4.271249 18.305275
v -23.535360 -4.271215 18.305279
v -23.535360 4.271249 18.305273
v -11.331839 -4.271247 -18.305279
v -11.331839 4.271215 -18.305285
v -23.535358 -4.271247 -18.305281
v -23.535358 4.271215 -18.305286
v -11.331834 -4.271270 -44.455677
v -11.331834 4.271192 -44.455685
v -23.535353 -4.271270 -44.455677
v -23.535353 4.271192 -44.455685
v -11.331844 -4.271193 44.455681
v -11.331844 4.271272 44.455669
v -23.535364 -4.271193 44.455677
v -23.535364 4.271272 44.455669
v -23.535355 -2.135637 -24.842880
v -23.535355 2.135594 -24.842884
v -23.535353 -2.135649 -37.918083
v -23.535353 2.135582 -37.918083
v -23.535362 -2.135594 24.842876
v -23.535362 2.135638 24.842873
v -23.535362 -2.135582 37.918076
v -23.535362 2.135650 37.918076
v -32.252155 -2.135637 -24.842880
v -32.252155 2.135594 -24.842884
v -32.252151 -2.135649 -37.918083
v -32.252151 2.135582 -37.918083
v -32.252163 -2.135594 24.842876
v -32.252163 2.135638 24.842873
v -32.252163 -2.135582 37.918076
v -32.252163 2.135650 37.918076
v -11.331845 -4.271189 48.814083
v -11.331845 4.271276 48.814068
v -23.535364 -4.271189 48.814075
v -23.535364 4.271276 48.814068
v -2.615045 -4.271193 44.455685
v -2.615045 4.271272 44.455669
v -2.615046 -4.271189 48.814087
v -2.615046 4.271276 48.814068
v -11.331834 -4.271272 -48.814079
v -11.331834 4.271190 -48.814087
v -23.535353 -4.271272 -48.814079
v -23.535353 4.271190 -48.814087
v -2.615034 -4.271270 -44.455677
v -2.615034 4.271192 -44.455685
v -2.615034 -4.271272 -48.814079
v -2.615034 4.271190 -48.814087
vn -1.000000 0.000000 0.000000
vn 0.000000 0.000000 1.000000
vn -0.000000 -1.000000 0.000001
vn 0.000000 1.000000 -0.000001
vn 1.000000 -0.000000 0.000000
vn 0.000000 0.000001 1.000000
vn 1.000000 -0.000003 0.000000
vn 0.000000 -0.000001 -1.000000
vn 1.000000 0.000002 0.000000
vn -0.000003 -0.000001 -1.000000
vn 0.000001 -0.000001 -1.000000
vn 0.000001 0.000001 1.000000
vn -0.000001 0.000001 1.000000
vn 1.000000 0.000001 0.000000
vn 1.000000 -0.000001 0.000000
vn -1.000000 0.000001 -0.000000
vn -1.000000 -0.000001 -0.000000
vn -0.000001 -0.000001 -1.000000
vn -0.000002 0.000001 1.000000
vn -1.000000 -0.000001 -0.000001
vn 0.000000 0.000000 -1.000000
vn -0.000001 0.000002 1.000000
vn 0.000000 0.000002 1.000000
vn 0.000000 -1.000000 0.000000
vn 0.000000 1.000000 -0.000000
vn -0.000001 -1.000000 0.000001
vn 1.000000 0.000004 0.000000
vn 0.000003 0.000001 1.000000
vn -1.000000 0.000002 -0.000000
vn -1.000000 0.000001 -0.000001
vn 0.000000 -0.000002 -1.000000
s off
f 26//1 25//1 116//1
f 8//2 7//2 12//2
f 1//3 5//3 2//3
f 15//4 11//4 24//4
f 3//4 7//4 4//4
f 12//4 16//4 30//4
f 12//4 11//4 16//4
f 7//2 6//2 11//2
f 5//2 8//2 9//2
f 6//2 5//2 10//2
f 13//5 16//5 14//5
f 31//3 13//3 87//3
f 9//3 29//3 91//3
f 10//3 9//3 14//3
f 17//6 19//6 18//6
f 21//2 23//2 37//2
f 13//7 31//7 53//7
f 11//1 10//1 22//1
f 6//5 7//5 19//5
f 7//4 3//4 20//4
f 2//3 6//3 17//3
f 4//1 26//1 112//1
f 27//8 25//8 28//8
f 31//8 29//8 35//8
f 32//9 16//9 56//9
f 9//1 12//1 29//1
f 8//5 5//5 28//5
f 4//4 8//4 26//4
f 5//3 1//3 27//3
f 25//1 1//1 109//1
f 35//3 33//3 51//3
f 30//8 32//8 34//8
f 32//10 31//10 36//10
f 29//11 30//11 33//11
f 37//6 39//6 41//6
f 24//2 22//2 40//2
f 23//2 24//2 39//2
f 22//2 21//2 38//2
f 41//3 43//3 45//3
f 40//6 38//6 44//6
f 39//12 40//12 43//12
f 38//13 37//13 42//13
f 46//6 45//6 48//6
f 44//4 42//4 48//4
f 44//5 48//5 74//5
f 42//1 41//1 46//1
f 49//8 50//8 51//8
f 34//4 36//4 50//4
f 52//5 36//5 72//5
f 33//1 34//1 49//1
f 53//3 59//3 61//3
f 60//4 56//4 68//4
f 31//5 32//5 59//5
f 15//7 24//7 55//7
f 23//5 14//5 54//5
f 24//5 23//5 58//5
f 14//1 15//1 54//1
f 16//1 13//1 56//1
f 62//5 63//5 65//5
f 64//5 61//5 68//5
f 59//8 60//8 67//8
f 55//4 58//4 63//4
f 57//3 54//3 65//3
f 58//6 57//6 66//6
f 54//8 55//8 62//8
f 56//6 53//6 64//6
f 75//3 73//3 83//3
f 35//5 51//5 69//5
f 51//5 52//5 71//5
f 36//5 35//5 70//5
f 74//4 76//4 82//4
f 47//5 43//5 75//5
f 48//5 47//5 76//5
f 43//5 44//5 73//5
f 78//5 77//5 80//5
f 81//5 82//5 83//5
f 76//6 75//6 84//6
f 73//8 74//8 81//8
f 72//4 70//4 80//4
f 69//3 71//3 77//3
f 71//8 72//8 79//8
f 70//6 69//6 78//6
f 92//2 87//2 100//2
f 85//2 91//2 93//2
f 29//3 31//3 91//3
f 14//3 23//3 88//3
f 21//3 10//3 89//3
f 23//3 21//3 90//3
f 13//4 9//4 87//4
f 10//4 14//4 86//4
f 100//14 95//14 108//14
f 93//1 99//1 101//1
f 91//2 92//2 99//2
f 88//2 90//2 96//2
f 89//2 86//2 97//2
f 90//2 89//2 98//2
f 87//2 85//2 95//2
f 86//2 88//2 94//2
f 102//3 104//3 105//3
f 103//3 101//3 108//3
f 99//8 100//8 107//8
f 96//15 98//15 104//15
f 97//16 94//16 105//16
f 98//6 97//6 106//6
f 95//6 93//6 103//6
f 94//8 96//8 102//8
f 124//8 116//8 132//8
f 112//4 116//4 120//4
f 115//3 109//3 123//3
f 2//17 17//17 110//17
f 18//16 3//16 111//16
f 17//1 18//1 113//1
f 3//1 4//1 111//1
f 1//17 2//17 109//17
f 119//4 120//4 127//4
f 119//1 118//1 122//1
f 117//1 120//1 123//1
f 110//3 113//3 118//3
f 114//4 111//4 122//4
f 114//6 122//6 134//6
f 111//4 112//4 119//4
f 109//3 110//3 117//3
f 125//1 126//1 128//1
f 118//6 119//6 126//6
f 120//8 117//8 128//8
f 117//3 118//3 125//3
f 132//2 130//2 140//2
f 123//8 124//8 131//8
f 116//18 115//18 130//18
f 115//8 123//8 129//8
f 134//4 136//4 146//4
f 121//6 113//6 135//6
f 122//13 121//13 136//13
f 113//19 114//19 133//19
f 140//4 138//4 144//4
f 131//2 132//2 139//2
f 130//2 129//2 138//2
f 129//2 131//2 137//2
f 144//4 142//4 176//4
f 143//16 139//16 151//16
f 138//5 137//5 142//5
f 137//3 139//3 141//3
f 146//4 148//4 166//4
f 135//3 133//3 147//3
f 135//1 147//1 153//1
f 133//5 134//5 145//5
f 156//4 154//4 164//4
f 140//17 144//17 150//17
f 144//1 143//1 152//1
f 139//20 140//20 149//20
f 153//3 155//3 161//3
f 148//1 136//1 156//1
f 147//1 148//1 155//1
f 136//1 135//1 154//1
f 157//1 158//1 159//1
f 162//1 161//1 164//1
f 155//2 156//2 163//2
f 154//8 153//8 162//8
f 151//3 149//3 159//3
f 150//4 152//4 158//4
f 152//21 151//21 160//21
f 149//6 150//6 157//6
f 165//22 166//22 167//22
f 147//3 145//3 167//3
f 148//1 147//1 168//1
f 165//3 145//3 171//3
f 169//5 170//5 171//5
f 146//4 166//4 170//4
f 166//23 165//23 172//23
f 145//11 146//11 169//11
f 174//8 173//8 176//8
f 143//1 144//1 175//1
f 141//24 173//24 177//24
f 141//24 143//24 173//24
f 178//5 177//5 180//5
f 174//25 142//25 180//25
f 173//8 174//8 179//8
f 142//6 141//6 178//6
f 25//1 115//1 116//1
f 7//2 11//2 12//2
f 5//3 6//3 2//3
f 11//4 22//4 24//4
f 7//4 8//4 4//4
f 16//4 32//4 30//4
f 11//4 15//4 16//4
f 6//2 10//2 11//2
f 8//2 12//2 9//2
f 5//2 9//2 10//2
f 16//5 15//5 14//5
f 92//26 31//26 87//26
f 85//3 9//3 91//3
f 9//3 13//3 14//3
f 19//6 20//6 18//6
f 23//2 39//2 37//2
f 31//9 59//9 53//9
f 10//1 21//1 22//1
f 7//5 20//5 19//5
f 3//4 18//4 20//4
f 6//3 19//3 17//3
f 26//17 116//17 112//17
f 25//11 26//11 28//11
f 29//8 33//8 35//8
f 60//5 32//5 56//5
f 12//1 30//1 29//1
f 5//5 27//5 28//5
f 8//4 28//4 26//4
f 1//3 25//3 27//3
f 115//16 25//16 109//16
f 33//3 49//3 51//3
f 32//8 36//8 34//8
f 31//8 35//8 36//8
f 30//8 34//8 33//8
f 39//6 43//6 41//6
f 22//2 38//2 40//2
f 24//2 40//2 39//2
f 21//2 37//2 38//2
f 43//3 47//3 45//3
f 38//6 42//6 44//6
f 40//19 44//19 43//19
f 37//6 41//6 42//6
f 45//6 47//6 48//6
f 42//4 46//4 48//4
f 48//5 76//5 74//5
f 41//1 45//1 46//1
f 50//8 52//8 51//8
f 36//4 52//4 50//4
f 36//5 70//5 72//5
f 34//1 50//1 49//1
f 59//3 67//3 61//3
f 56//4 64//4 68//4
f 32//5 60//5 59//5
f 24//27 58//27 55//27
f 57//5 23//5 54//5
f 23//5 57//5 58//5
f 15//1 55//1 54//1
f 13//1 53//1 56//1
f 63//5 66//5 65//5
f 61//5 67//5 68//5
f 60//8 68//8 67//8
f 58//4 66//4 63//4
f 54//3 62//3 65//3
f 57//6 65//6 66//6
f 55//8 63//8 62//8
f 53//6 61//6 64//6
f 73//3 81//3 83//3
f 51//5 71//5 69//5
f 52//5 72//5 71//5
f 35//5 69//5 70//5
f 76//4 84//4 82//4
f 43//5 73//5 75//5
f 47//5 75//5 76//5
f 44//5 74//5 73//5
f 77//5 79//5 80//5
f 82//5 84//5 83//5
f 75//6 83//6 84//6
f 74//8 82//8 81//8
f 70//4 78//4 80//4
f 71//3 79//3 77//3
f 72//8 80//8 79//8
f 69//6 77//6 78//6
f 87//2 95//2 100//2
f 91//2 99//2 93//2
f 31//3 92//3 91//3
f 23//3 90//3 88//3
f 10//3 86//3 89//3
f 21//3 89//3 90//3
f 9//4 85//4 87//4
f 14//4 88//4 86//4
f 95//15 103//15 108//15
f 99//1 107//1 101//1
f 92//2 100//2 99//2
f 90//2 98//2 96//2
f 86//2 94//2 97//2
f 89//2 97//2 98//2
f 85//2 93//2 95//2
f 88//2 96//2 94//2
f 104//3 106//3 105//3
f 101//3 107//3 108//3
f 100//8 108//8 107//8
f 98//14 106//14 104//14
f 94//17 102//17 105//17
f 97//6 105//6 106//6
f 93//6 101//6 103//6
f 96//8 104//8 102//8
f 116//8 130//8 132//8
f 116//4 124//4 120//4
f 109//3 117//3 123//3
f 17//1 113//1 110//1
f 114//17 18//17 111//17
f 18//1 114//1 113//1
f 4//1 112//1 111//1
f 2//1 110//1 109//1
f 120//4 128//4 127//4
f 118//1 121//1 122//1
f 120//1 124//1 123//1
f 113//3 121//3 118//3
f 111//4 119//4 122//4
f 122//6 136//6 134//6
f 112//4 120//4 119//4
f 110//3 118//3 117//3
f 126//1 127//1 128//1
f 119//6 127//6 126//6
f 117//8 125//8 128//8
f 118//3 126//3 125//3
f 130//2 138//2 140//2
f 124//11 132//11 131//11
f 115//8 129//8 130//8
f 123//8 131//8 129//8
f 136//4 148//4 146//4
f 113//6 133//6 135//6
f 121//6 135//6 136//6
f 114//28 134//28 133//28
f 138//4 142//4 144//4
f 132//2 140//2 139//2
f 129//2 137//2 138//2
f 131//2 139//2 137//2
f 142//25 174//25 176//25
f 139//29 149//29 151//29
f 137//5 141//5 142//5
f 139//3 143//3 141//3
f 148//4 168//4 166//4
f 133//3 145//3 147//3
f 147//1 155//1 153//1
f 134//5 146//5 145//5
f 154//4 162//4 164//4
f 144//29 152//29 150//29
f 143//1 151//1 152//1
f 140//30 150//30 149//30
f 155//3 163//3 161//3
f 136//1 154//1 156//1
f 148//1 156//1 155//1
f 135//1 153//1 154//1
f 158//1 160//1 159//1
f 161//1 163//1 164//1
f 156//2 164//2 163//2
f 153//8 161//8 162//8
f 149//3 157//3 159//3
f 152//4 160//4 158//4
f 151//21 159//21 160//21
f 150//6 158//6 157//6
f 166//6 168//6 167//6
f 145//3 165//3 167//3
f 147//1 167//1 168//1
f 145//3 169//3 171//3
f 170//5 172//5 171//5
f 166//4 172//4 170//4
f 165//22 171//22 172//22
f 146//31 170//31 169//31
f 173//8 175//8 176//8
f 144//1 176//1 175//1
f 173//3 179//3 177//3
f 143//3 175//3 173//3
f 177//5 179//5 180//5
f 142//4 178//4 180//4
f 174//8 180//8 179//8
f 141//6 177//6 178//6
