# Blender v2.69 (sub 0) OBJ File: 'Alien2.blend'
# www.blender.org
o Cube
v -11.331841 -4.271215 18.305281
v -11.331841 4.271249 18.305275
v -23.535360 -4.271215 18.305279
v -23.535360 4.271249 18.305273
v -11.331839 -4.271247 -18.305279
v -11.331839 4.271215 -18.305285
v -23.535358 -4.271247 -18.305281
v -23.535358 4.271215 -18.305286
v -11.331834 -4.271270 -44.455677
v -11.331834 4.271192 -44.455685
v -23.535353 -4.271270 -44.455677
v -23.535353 4.271192 -44.455685
v -11.331844 -4.271193 44.455681
v -11.331844 4.271272 44.455669
v -23.535364 -4.271193 44.455677
v -23.535364 4.271272 44.455669
v -23.535355 -2.135637 -24.842880
v -23.535355 2.135594 -24.842884
v -23.535353 -2.135649 -37.918083
v -23.535353 2.135582 -37.918083
v -23.535362 -2.135594 24.842876
v -23.535362 2.135638 24.842873
v -23.535362 -2.135582 37.918076
v -23.535362 2.135650 37.918076
v -32.252155 -2.135637 -24.842880
v -32.252155 2.135594 -24.842884
v -32.252151 -2.135649 -37.918083
v -32.252151 2.135582 -37.918083
v -32.252163 -2.135594 24.842876
v -32.252163 2.135638 24.842873
v -32.252163 -2.135582 37.918076
v -32.252163 2.135650 37.918076
v -11.331845 -4.271189 48.814083
v -11.331845 4.271276 48.814068
v -23.535364 -4.271189 48.814075
v -23.535364 4.271276 48.814068
v -2.615045 -4.271193 44.455685
v -2.615045 4.271272 44.455669
v -2.615046 -4.271189 48.814087
v -2.615046 4.271276 48.814068
v -11.331834 -4.271272 -48.814079
v -11.331834 4.271190 -48.814087
v -23.535353 -4.271272 -48.814079
v -23.535353 4.271190 -48.814087
v -2.615034 -4.271270 -44.455677
v -2.615034 4.271192 -44.455685
v -2.615034 -4.271272 -48.814079
v -2.615034 4.271190 -48.814087
vn 0.000000 1.000000 -0.000001
vn -1.000000 0.000001 -0.000000
vn 1.000000 0.000000 0.000000
vn 0.000000 -1.000000 0.000001
vn -1.000000 0.000000 -0.000000
vn -1.000000 -0.000001 -0.000000
vn -1.000000 -0.000001 -0.000001
vn 0.000000 0.000000 1.000000
vn 0.000000 -0.000001 -1.000000
vn 0.000000 0.000000 -1.000000
vn 0.000000 0.000001 1.000000
vn -0.000001 0.000002 1.000000
vn 0.000000 0.000002 1.000000
vn 0.000001 -0.000001 -1.000000
vn 0.000000 -1.000000 0.000000
vn 0.000000 1.000000 -0.000000
vn -1.000000 0.000002 -0.000000
vn -1.000000 0.000001 -0.000001
vn 0.000000 -0.000002 -1.000000
s off
f 2//1 4//1 14//1
f 8//1 6//1 12//1
f 12//1 10//1 44//1
f 11//2 7//2 19//2
f 6//3 5//3 10//3
f 5//4 7//4 9//4
f 14//1 16//1 34//1
f 3//4 1//4 15//4
f 3//5 15//5 21//5
f 1//3 2//3 13//3
f 24//1 22//1 32//1
f 8//6 12//6 18//6
f 12//5 11//5 20//5
f 7//7 8//7 17//7
f 21//4 23//4 29//4
f 16//5 4//5 24//5
f 15//5 16//5 23//5
f 4//5 3//5 22//5
f 25//5 26//5 27//5
f 30//5 29//5 32//5
f 23//8 24//8 31//8
f 22//9 21//9 30//9
f 19//4 17//4 27//4
f 18//1 20//1 26//1
f 20//10 19//10 28//10
f 17//11 18//11 25//11
f 33//12 34//12 35//12
f 15//4 13//4 35//4
f 16//5 15//5 36//5
f 33//4 13//4 39//4
f 37//3 38//3 39//3
f 14//1 34//1 38//1
f 34//13 33//13 40//13
f 13//14 14//14 37//14
f 42//9 41//9 44//9
f 11//5 12//5 43//5
f 9//15 41//15 45//15
f 9//15 11//15 41//15
f 46//3 45//3 48//3
f 42//16 10//16 48//16
f 41//9 42//9 47//9
f 10//11 9//11 46//11
f 4//1 16//1 14//1
f 6//1 10//1 12//1
f 10//16 42//16 44//16
f 7//17 17//17 19//17
f 5//3 9//3 10//3
f 7//4 11//4 9//4
f 16//1 36//1 34//1
f 1//4 13//4 15//4
f 15//5 23//5 21//5
f 2//3 14//3 13//3
f 22//1 30//1 32//1
f 12//17 20//17 18//17
f 11//5 19//5 20//5
f 8//18 18//18 17//18
f 23//4 31//4 29//4
f 4//5 22//5 24//5
f 16//5 24//5 23//5
f 3//5 21//5 22//5
f 26//5 28//5 27//5
f 29//5 31//5 32//5
f 24//8 32//8 31//8
f 21//9 29//9 30//9
f 17//4 25//4 27//4
f 20//1 28//1 26//1
f 19//10 27//10 28//10
f 18//11 26//11 25//11
f 34//11 36//11 35//11
f 13//4 33//4 35//4
f 15//5 35//5 36//5
f 13//4 37//4 39//4
f 38//3 40//3 39//3
f 34//1 40//1 38//1
f 33//12 39//12 40//12
f 14//19 38//19 37//19
f 41//9 43//9 44//9
f 12//5 44//5 43//5
f 41//4 47//4 45//4
f 11//4 43//4 41//4
f 45//3 47//3 48//3
f 10//1 46//1 48//1
f 42//9 48//9 47//9
f 9//11 45//11 46//11
