# Blender v2.69 (sub 0) OBJ File: 'Bullet.blend2'
# www.blender.org
o Cone
v 0.000007 5.344244 5.495792
v -2.747891 4.607947 5.495796
v -4.759491 2.596347 5.495800
v -5.495788 -0.151551 5.495802
v -4.759491 -2.899448 5.495803
v -2.747891 -4.911049 5.495802
v 0.000006 -5.647346 5.495799
v 2.747903 -4.911050 5.495795
v 4.759504 -2.899450 5.495791
v 5.495802 -0.151553 5.495788
v 4.759507 2.596344 5.495788
v 2.747908 4.607946 5.495789
v 0.000030 4.005012 24.068235
v -2.078246 3.448140 24.068237
v -3.599649 1.926737 24.068241
v -4.156521 -0.151539 24.068243
v -3.599649 -2.229815 24.068243
v -2.078246 -3.751218 24.068243
v 0.000029 -4.308090 24.068239
v 2.078304 -3.751218 24.068237
v 3.599708 -2.229816 24.068233
v 4.156581 -0.151541 24.068232
v 3.599710 1.926735 24.068232
v 2.078308 3.448139 24.068232
v 0.000033 4.005013 26.334572
v -2.078242 3.448141 26.334574
v -3.599646 1.926738 26.334578
v -4.156518 -0.151538 26.334579
v -3.599645 -2.229813 26.334579
v -2.078243 -3.751216 26.334579
v 0.000033 -4.308088 26.334576
v 2.078308 -3.751216 26.334574
v 3.599711 -2.229814 26.334570
v 4.156585 -0.151539 26.334568
v 3.599713 1.926736 26.334568
v 2.078311 3.448140 26.334568
vn 0.258194 0.963591 0.069483
vn 0.258819 0.965926 -0.000001
vn 0.705398 0.705398 0.069482
vn 0.963592 0.258193 0.069482
vn 0.963591 -0.258194 0.069483
vn 0.705398 -0.705398 0.069483
vn 0.258193 -0.963591 0.069484
vn -0.258193 -0.963591 0.069485
vn -0.705398 -0.705397 0.069485
vn -0.963591 -0.258194 0.069485
vn -0.963591 0.258194 0.069485
vn -0.705398 0.705398 0.069484
vn -0.258193 0.963591 0.069483
vn 0.000000 0.000000 1.000000
vn 0.707107 0.707106 -0.000002
vn 0.965926 0.258819 -0.000002
vn 0.965926 -0.258820 -0.000001
vn 0.707106 -0.707107 -0.000001
vn 0.258819 -0.965926 0.000000
vn -0.258818 -0.965926 0.000001
vn -0.707107 -0.707107 0.000002
vn -0.965926 -0.258819 0.000002
vn -0.965926 0.258818 0.000001
vn -0.707107 0.707107 0.000000
vn -0.258819 0.965926 0.000000
vn 0.705398 0.705397 0.069483
vn -0.705398 -0.705398 0.069485
vn 0.000003 0.000003 1.000000
vn 0.000002 0.000000 1.000000
vn 0.000003 0.000001 1.000000
vn -0.000002 0.000001 1.000000
vn 0.000004 0.000000 1.000000
vn 0.000000 0.000001 1.000000
vn 0.000001 0.000001 1.000000
vn 0.000001 0.000000 1.000000
vn 0.707107 0.707106 -0.000001
vn -0.258820 -0.965926 0.000001
vn -0.707107 -0.707107 0.000001
vn -0.965926 0.258819 0.000001
vn -0.707106 0.707107 0.000001
s off
f 12//1 1//1 24//1
f 24//2 13//2 36//2
f 11//3 12//3 23//3
f 10//4 11//4 22//4
f 9//5 10//5 21//5
f 8//6 9//6 20//6
f 7//7 8//7 19//7
f 6//8 7//8 18//8
f 5//9 6//9 17//9
f 4//10 5//10 16//10
f 3//11 4//11 15//11
f 2//12 3//12 14//12
f 1//13 2//13 13//13
f 35//14 33//14 34//14
f 23//15 24//15 35//15
f 22//16 23//16 34//16
f 21//17 22//17 33//17
f 20//18 21//18 32//18
f 19//19 20//19 32//19
f 18//20 19//20 30//20
f 17//21 18//21 30//21
f 16//22 17//22 28//22
f 15//23 16//23 27//23
f 14//24 15//24 26//24
f 13//25 14//25 25//25
f 1//1 13//1 24//1
f 13//2 25//2 36//2
f 12//26 24//26 23//26
f 11//4 23//4 22//4
f 10//5 22//5 21//5
f 9//6 21//6 20//6
f 8//7 20//7 19//7
f 7//8 19//8 18//8
f 6//27 18//27 17//27
f 5//10 17//10 16//10
f 4//11 16//11 15//11
f 3//12 15//12 14//12
f 2//13 14//13 13//13
f 31//28 29//28 30//28
f 36//29 33//29 35//29
f 36//30 25//30 33//30
f 33//31 25//31 32//31
f 25//32 26//32 32//32
f 26//33 27//33 32//33
f 27//34 28//34 32//34
f 28//35 29//35 32//35
f 29//29 31//29 32//29
f 24//36 36//36 35//36
f 23//16 35//16 34//16
f 22//17 34//17 33//17
f 21//18 33//18 32//18
f 31//19 19//19 32//19
f 19//37 31//37 30//37
f 29//38 17//38 30//38
f 17//22 29//22 28//22
f 16//39 28//39 27//39
f 15//40 27//40 26//40
f 14//25 26//25 25//25
