# Blender v2.69 (sub 0) OBJ File: 'Rock.blend'
# www.blender.org
o Icosphere
v 0.000000 -40.118134 0.000000
v 29.029774 -17.941612 21.091118
v -11.088171 -17.941626 34.126461
v -38.016865 -16.718845 -1.944405
v -11.088171 -17.941626 -34.126461
v 29.029774 -17.941612 -21.091118
v 11.115687 17.238657 34.211117
v -31.924288 14.931056 15.028921
v -31.061380 19.735886 -12.130607
v 9.506503 15.475665 -38.130108
v 34.500355 14.534709 7.475257
v 2.958426 38.834084 -2.149419
v 0.354625 -31.922703 20.859514
v 11.974209 -31.922697 17.084019
v 8.762713 -25.499537 26.968348
v 34.126404 -21.091543 0.000000
v 17.063152 -34.126659 -12.396960
v -19.030418 -37.494251 -1.944405
v -28.026159 -12.543789 24.456327
v -6.517414 -34.126667 -20.058876
v -27.608873 -21.091555 -20.058943
v 11.098380 -11.727611 -34.156944
v 35.202480 8.990087 11.306427
v 38.154667 0.000000 -12.397010
v 0.679179 0.351483 39.850651
v 22.874168 0.351483 32.639061
v -32.952999 3.221004 15.376645
v -25.614895 -1.679253 28.214378
v -23.580862 0.000000 -32.456242
v -38.154667 0.000000 -12.397010
v 15.452712 -4.682002 -34.157013
v 7.575576 -4.682002 -36.716454
v 31.943411 15.508216 13.674270
v -11.839683 17.893064 36.438103
v -30.533199 20.584053 -1.454600
v -5.428389 19.068283 -38.888088
v 32.145157 19.792078 -18.853106
v 11.504012 35.725941 19.477907
v 17.269575 34.768600 -2.149419
v -20.755875 35.725929 8.995863
v -23.524727 29.929331 -6.654972
v 4.426092 38.534107 -12.962226
v 19.919394 -33.082314 7.367780
v 27.401918 -29.423786 1.597175
v 21.638327 -33.826763 -2.590245
v -5.975575 -39.947689 -4.341500
v -14.776427 -37.447559 -4.341500
v -8.695123 -37.447605 -12.711548
v 6.325805 40.336720 -3.993231
v 13.218967 38.378525 -3.993231
v 7.032726 40.192234 -9.201368
vn 0.117434 -0.924980 0.361416
vn 0.576394 -0.776294 0.255223
vn -0.163575 -0.917256 0.363159
vn -0.145819 -0.949660 -0.277276
vn 0.102381 -0.943524 -0.315090
vn 0.959383 -0.128679 0.251051
vn 0.174941 -0.394774 0.901970
vn -0.927965 -0.080431 0.363885
vn -0.574602 -0.330388 -0.748783
vn 0.490373 -0.303069 -0.817119
vn 0.869068 -0.019601 0.494304
vn -0.402780 -0.027189 0.914893
vn -0.980059 0.099467 0.172018
vn -0.135821 -0.002343 -0.990731
vn 0.692221 -0.002345 -0.721682
vn 0.638812 0.471242 0.608153
vn -0.660095 0.513566 0.548202
vn -0.802064 0.597187 -0.007763
vn 0.210716 0.741591 -0.636900
vn 0.743899 0.665000 0.066245
vn -0.000730 -0.688652 0.725091
vn 0.187594 -0.794658 0.577345
vn 0.426795 -0.688652 0.586178
vn 0.700224 -0.661699 -0.268032
vn -0.068820 -0.995666 0.062555
vn 0.416506 -0.898435 0.139062
vn -0.688645 -0.629346 0.360127
vn -0.426839 -0.725353 0.540067
vn -0.479683 -0.777860 0.406003
vn -0.408946 -0.661698 -0.628425
vn -0.466185 -0.754313 -0.462259
vn -0.714198 -0.652699 -0.252797
vn 0.311660 -0.618097 -0.721681
vn 0.236430 -0.643923 -0.727643
vn 0.172063 -0.618098 -0.767039
vn 0.984337 0.165886 0.059680
vn 0.982841 -0.094661 0.158312
vn 0.904989 -0.330384 -0.268031
vn 0.306569 0.125629 0.943522
vn 0.289122 -0.353018 0.889824
vn 0.388644 -0.394776 0.832531
vn -0.849450 0.090062 0.519926
vn -0.864969 0.018506 0.501484
vn -0.528917 -0.170205 0.831431
vn -0.775175 0.286208 -0.563195
vn -0.794656 -0.187595 -0.577348
vn -0.860842 -0.274846 -0.428265
vn 0.307594 -0.095855 -0.946677
vn 0.303531 -0.187598 -0.934171
vn 0.083579 -0.303068 -0.949297
vn 0.660029 0.400404 0.635640
vn 0.809310 0.204647 0.550578
vn 0.889697 0.330385 0.315094
vn -0.724544 0.238191 0.646762
vn -0.395670 -0.104881 0.912384
vn 0.100577 0.258676 0.960714
vn -0.940966 0.337927 0.019706
vn -0.950491 0.274202 0.146215
vn -0.994821 0.085774 -0.054539
vn 0.033012 -0.073066 -0.996781
vn -0.159280 -0.176033 -0.971413
vn -0.654191 0.407949 -0.636877
vn 0.959087 0.281564 -0.029571
vn 0.694329 -0.023801 -0.719264
vn 0.643482 0.039142 -0.764460
vn 0.273141 0.961498 0.030255
vn 0.716798 0.678425 0.161058
vn 0.703980 0.686348 0.182589
vn -0.052787 0.985302 0.162459
vn -0.187594 0.794658 0.577346
vn 0.093285 0.619317 0.779580
vn -0.259105 0.919756 -0.294811
vn -0.816010 0.573998 -0.068228
vn -0.865063 0.492418 0.095869
vn -0.307544 0.949095 -0.068074
vn -0.354917 0.807402 -0.471314
vn -0.527420 0.670347 -0.521980
vn 0.654713 0.410438 -0.634737
vn 0.490575 0.819051 -0.297476
vn 0.363333 0.722314 -0.588431
vn 0.527045 -0.835866 0.153466
vn 0.673787 -0.428362 0.602094
vn 0.709364 -0.632220 -0.311610
vn -0.268034 -0.943523 -0.194736
vn 0.224824 -0.911196 -0.345218
vn -0.111557 -0.969806 -0.216865
vn 0.273251 0.961887 0.010404
vn -0.444501 0.891730 -0.085072
vn 0.167989 0.591347 0.788726
vn -0.641028 -0.610058 -0.465738
vn 0.654712 0.410438 -0.634738
vn 0.673786 -0.428362 0.602095
vn 0.709364 -0.632220 -0.311609
vn 0.224824 -0.911197 -0.345217
vn -0.258850 -0.911193 0.320505
vn -0.444502 0.891729 -0.085072
vn 0.167988 0.591346 0.788727
s off
f 1//1 14//1 13//1
f 2//2 14//2 16//2
f 1//3 13//3 18//3
f 18//4 20//4 47//4
f 1//5 20//5 17//5
f 2//6 16//6 23//6
f 3//7 15//7 25//7
f 4//8 19//8 27//8
f 5//9 21//9 29//9
f 6//10 22//10 31//10
f 2//11 23//11 26//11
f 3//12 25//12 28//12
f 4//13 27//13 30//13
f 5//14 29//14 32//14
f 6//15 31//15 24//15
f 7//16 33//16 38//16
f 8//17 34//17 40//17
f 9//18 35//18 41//18
f 10//19 36//19 42//19
f 11//20 37//20 39//20
f 13//21 15//21 3//21
f 13//22 14//22 15//22
f 14//23 2//23 15//23
f 16//24 17//24 6//24
f 14//25 17//25 45//25
f 14//26 1//26 17//26
f 18//27 19//27 4//27
f 18//28 13//28 19//28
f 13//29 3//29 19//29
f 20//30 21//30 5//30
f 20//31 18//31 21//31
f 18//32 4//32 21//32
f 17//33 22//33 6//33
f 17//34 20//34 22//34
f 20//35 5//35 22//35
f 23//36 24//36 11//36
f 23//37 16//37 24//37
f 16//38 6//38 24//38
f 25//39 26//39 7//39
f 25//40 15//40 26//40
f 15//41 2//41 26//41
f 27//42 28//42 8//42
f 27//43 19//43 28//43
f 19//44 3//44 28//44
f 29//45 30//45 9//45
f 29//46 21//46 30//46
f 21//47 4//47 30//47
f 31//48 32//48 10//48
f 31//49 22//49 32//49
f 22//50 5//50 32//50
f 26//51 33//51 7//51
f 26//52 23//52 33//52
f 23//53 11//53 33//53
f 28//54 34//54 8//54
f 28//55 25//55 34//55
f 25//56 7//56 34//56
f 30//57 35//57 9//57
f 30//58 27//58 35//58
f 27//59 8//59 35//59
f 32//60 36//60 10//60
f 32//61 29//61 36//61
f 29//62 9//62 36//62
f 24//63 37//63 11//63
f 24//64 31//64 37//64
f 31//65 10//65 37//65
f 38//66 39//66 12//66
f 38//67 33//67 39//67
f 33//68 11//68 39//68
f 40//69 38//69 12//69
f 40//70 34//70 38//70
f 34//71 7//71 38//71
f 41//72 40//72 12//72
f 41//73 35//73 40//73
f 35//74 8//74 40//74
f 42//75 41//75 12//75
f 42//76 36//76 41//76
f 36//77 9//77 41//77
f 39//78 42//78 51//78
f 39//79 37//79 42//79
f 37//80 10//80 42//80
f 44//81 43//81 45//81
f 16//82 14//82 44//82
f 17//83 16//83 45//83
f 46//84 47//84 48//84
f 20//85 1//85 46//85
f 1//86 18//86 47//86
f 50//87 51//87 49//87
f 42//88 12//88 49//88
f 12//89 39//89 49//89
f 20//90 48//90 47//90
f 43//25 14//25 45//25
f 50//91 39//91 51//91
f 14//92 43//92 44//92
f 16//93 44//93 45//93
f 48//94 20//94 46//94
f 46//95 1//95 47//95
f 51//96 42//96 49//96
f 39//97 50//97 49//97
